%TF.GenerationSoftware,KiCad,Pcbnew,10.0.0*%
%TF.CreationDate,2026-07-02T14:55:32-03:00*%
%TF.ProjectId,Monitores_de_camiones,4d6f6e69-746f-4726-9573-5f64655f6361,rev?*%
%TF.SameCoordinates,Original*%
%TF.FileFunction,Paste,Top*%
%TF.FilePolarity,Positive*%
%FSLAX46Y46*%
G04 Gerber Fmt 4.6, Leading zero omitted, Abs format (unit mm)*
G04 Created by KiCad (PCBNEW 10.0.0) date 2026-07-02 14:55:32*
%MOMM*%
%LPD*%
G01*
G04 APERTURE LIST*
G04 Aperture macros list*
%AMRoundRect*
0 Rectangle with rounded corners*
0 $1 Rounding radius*
0 $2 $3 $4 $5 $6 $7 $8 $9 X,Y pos of 4 corners*
0 Add a 4 corners polygon primitive as box body*
4,1,4,$2,$3,$4,$5,$6,$7,$8,$9,$2,$3,0*
0 Add four circle primitives for the rounded corners*
1,1,$1+$1,$2,$3*
1,1,$1+$1,$4,$5*
1,1,$1+$1,$6,$7*
1,1,$1+$1,$8,$9*
0 Add four rect primitives between the rounded corners*
20,1,$1+$1,$2,$3,$4,$5,0*
20,1,$1+$1,$4,$5,$6,$7,0*
20,1,$1+$1,$6,$7,$8,$9,0*
20,1,$1+$1,$8,$9,$2,$3,0*%
G04 Aperture macros list end*
%ADD10RoundRect,0.050000X0.150000X-0.730000X0.150000X0.730000X-0.150000X0.730000X-0.150000X-0.730000X0*%
%ADD11RoundRect,0.250000X-0.350000X-0.450000X0.350000X-0.450000X0.350000X0.450000X-0.350000X0.450000X0*%
%ADD12RoundRect,0.250000X0.450000X-0.350000X0.450000X0.350000X-0.450000X0.350000X-0.450000X-0.350000X0*%
%ADD13R,1.200000X0.700000*%
%ADD14R,1.200000X1.000000*%
%ADD15R,0.800000X1.000000*%
%ADD16R,2.800000X1.000000*%
%ADD17R,1.900000X1.300000*%
%ADD18RoundRect,0.250000X-0.450000X0.350000X-0.450000X-0.350000X0.450000X-0.350000X0.450000X0.350000X0*%
%ADD19RoundRect,0.250000X-0.337500X-0.475000X0.337500X-0.475000X0.337500X0.475000X-0.337500X0.475000X0*%
%ADD20RoundRect,0.250000X-0.550000X1.500000X-0.550000X-1.500000X0.550000X-1.500000X0.550000X1.500000X0*%
%ADD21RoundRect,0.175000X-0.175000X-0.425000X0.175000X-0.425000X0.175000X0.425000X-0.175000X0.425000X0*%
%ADD22RoundRect,0.190000X0.190000X0.410000X-0.190000X0.410000X-0.190000X-0.410000X0.190000X-0.410000X0*%
%ADD23RoundRect,0.200000X0.200000X0.400000X-0.200000X0.400000X-0.200000X-0.400000X0.200000X-0.400000X0*%
%ADD24RoundRect,0.175000X0.175000X0.425000X-0.175000X0.425000X-0.175000X-0.425000X0.175000X-0.425000X0*%
%ADD25RoundRect,0.190000X-0.190000X-0.410000X0.190000X-0.410000X0.190000X0.410000X-0.190000X0.410000X0*%
%ADD26RoundRect,0.200000X-0.200000X-0.400000X0.200000X-0.400000X0.200000X0.400000X-0.200000X0.400000X0*%
%ADD27O,1.100000X1.700000*%
%ADD28RoundRect,0.150000X-0.150000X0.512500X-0.150000X-0.512500X0.150000X-0.512500X0.150000X0.512500X0*%
%ADD29RoundRect,0.250000X0.440000X-0.255000X0.440000X0.255000X-0.440000X0.255000X-0.440000X-0.255000X0*%
%ADD30RoundRect,0.150000X0.150000X-0.825000X0.150000X0.825000X-0.150000X0.825000X-0.150000X-0.825000X0*%
%ADD31RoundRect,0.250000X-0.475000X0.337500X-0.475000X-0.337500X0.475000X-0.337500X0.475000X0.337500X0*%
%ADD32RoundRect,0.250000X0.475000X-0.337500X0.475000X0.337500X-0.475000X0.337500X-0.475000X-0.337500X0*%
G04 APERTURE END LIST*
D10*
%TO.C,Q1*%
X30225000Y-62580000D03*
X30875000Y-62580000D03*
X31525000Y-62580000D03*
X32175000Y-62580000D03*
X32175000Y-56820000D03*
X31525000Y-56820000D03*
X30875000Y-56820000D03*
X30225000Y-56820000D03*
%TD*%
D11*
%TO.C,R14*%
X34250000Y-83000000D03*
X36250000Y-83000000D03*
%TD*%
D12*
%TO.C,R2*%
X25750000Y-83250000D03*
X25750000Y-81250000D03*
%TD*%
D13*
%TO.C,J3*%
X67310000Y-74005000D03*
X67310000Y-75105000D03*
X67310000Y-76205000D03*
X67310000Y-77305000D03*
X67310000Y-78405000D03*
X67310000Y-79505000D03*
X67310000Y-80605000D03*
X67310000Y-81705000D03*
X67310000Y-82655000D03*
D14*
X71610000Y-83605000D03*
D15*
X77810000Y-83605000D03*
D16*
X81960000Y-83605000D03*
D14*
X67310000Y-72455000D03*
D17*
X82410000Y-70105000D03*
%TD*%
D18*
%TO.C,R1*%
X22000000Y-86750000D03*
X22000000Y-88750000D03*
%TD*%
D12*
%TO.C,R12*%
X64000000Y-89800000D03*
X64000000Y-87800000D03*
%TD*%
%TO.C,R11*%
X60000000Y-89800000D03*
X60000000Y-87800000D03*
%TD*%
D11*
%TO.C,R3*%
X25500000Y-75250000D03*
X27500000Y-75250000D03*
%TD*%
D12*
%TO.C,R9*%
X72400000Y-89800000D03*
X72400000Y-87800000D03*
%TD*%
D19*
%TO.C,C1*%
X28212500Y-81250000D03*
X30287500Y-81250000D03*
%TD*%
D20*
%TO.C,C6*%
X51000000Y-80800000D03*
X51000000Y-86400000D03*
%TD*%
D12*
%TO.C,R4*%
X29800000Y-68800000D03*
X29800000Y-66800000D03*
%TD*%
%TO.C,R7*%
X68000000Y-89800000D03*
X68000000Y-87800000D03*
%TD*%
%TO.C,R10*%
X56200000Y-89800000D03*
X56200000Y-87800000D03*
%TD*%
D21*
%TO.C,J1*%
X30000000Y-85920000D03*
D22*
X32020000Y-85920000D03*
D23*
X33250000Y-85920000D03*
D24*
X31000000Y-85920000D03*
D25*
X28980000Y-85920000D03*
D26*
X27750000Y-85920000D03*
D27*
X26180000Y-86000000D03*
X26180000Y-89800000D03*
X34820000Y-86000000D03*
X34820000Y-89800000D03*
%TD*%
D28*
%TO.C,U2*%
X30750000Y-71062500D03*
X29800000Y-71062500D03*
X28850000Y-71062500D03*
X28850000Y-73337500D03*
X29800000Y-73337500D03*
X30750000Y-73337500D03*
%TD*%
D29*
%TO.C,U1*%
X19125000Y-81300000D03*
X20775000Y-81300000D03*
X19125000Y-80100000D03*
X20775000Y-80100000D03*
D30*
X18045000Y-83175000D03*
X19315000Y-83175000D03*
X20585000Y-83175000D03*
X21855000Y-83175000D03*
X21855000Y-78225000D03*
X20585000Y-78225000D03*
X19315000Y-78225000D03*
X18045000Y-78225000D03*
%TD*%
D31*
%TO.C,C3*%
X29750000Y-76462500D03*
X29750000Y-78537500D03*
%TD*%
D11*
%TO.C,R13*%
X34250000Y-81000000D03*
X36250000Y-81000000D03*
%TD*%
D12*
%TO.C,R8*%
X76200000Y-89800000D03*
X76200000Y-87800000D03*
%TD*%
D32*
%TO.C,C2*%
X21750000Y-75287500D03*
X21750000Y-73212500D03*
%TD*%
M02*
