%TF.GenerationSoftware,KiCad,Pcbnew,10.0.0*%
%TF.CreationDate,2026-07-02T14:55:32-03:00*%
%TF.ProjectId,Monitores_de_camiones,4d6f6e69-746f-4726-9573-5f64655f6361,rev?*%
%TF.SameCoordinates,Original*%
%TF.FileFunction,Soldermask,Bot*%
%TF.FilePolarity,Negative*%
%FSLAX46Y46*%
G04 Gerber Fmt 4.6, Leading zero omitted, Abs format (unit mm)*
G04 Created by KiCad (PCBNEW 10.0.0) date 2026-07-02 14:55:32*
%MOMM*%
%LPD*%
G01*
G04 APERTURE LIST*
G04 APERTURE END LIST*
G36*
X26247445Y-88915048D02*
G01*
X26257010Y-88915048D01*
X26284569Y-88922432D01*
X26351181Y-88935682D01*
X26382620Y-88948704D01*
X26405783Y-88954911D01*
X26426550Y-88966900D01*
X26457988Y-88979923D01*
X26514459Y-89017655D01*
X26539169Y-89031922D01*
X26545932Y-89038685D01*
X26554105Y-89044146D01*
X26635853Y-89125894D01*
X26641313Y-89134066D01*
X26648078Y-89140831D01*
X26662346Y-89165544D01*
X26700076Y-89222011D01*
X26713096Y-89253446D01*
X26725089Y-89274217D01*
X26731296Y-89297383D01*
X26744317Y-89328818D01*
X26757566Y-89395427D01*
X26764952Y-89422990D01*
X26765887Y-89437256D01*
X26767159Y-89443650D01*
X26769710Y-89495578D01*
X26770000Y-89500000D01*
X26770000Y-90100000D01*
X26769709Y-90104424D01*
X26767159Y-90156349D01*
X26765887Y-90162742D01*
X26764952Y-90177010D01*
X26757565Y-90204575D01*
X26744317Y-90271181D01*
X26731297Y-90302613D01*
X26725089Y-90325783D01*
X26713095Y-90346556D01*
X26700076Y-90377988D01*
X26662350Y-90434448D01*
X26648078Y-90459169D01*
X26641311Y-90465935D01*
X26635853Y-90474105D01*
X26554105Y-90555853D01*
X26545935Y-90561311D01*
X26539169Y-90568078D01*
X26514448Y-90582350D01*
X26457988Y-90620076D01*
X26426556Y-90633095D01*
X26405783Y-90645089D01*
X26382613Y-90651297D01*
X26351181Y-90664317D01*
X26284575Y-90677565D01*
X26257010Y-90684952D01*
X26247444Y-90684952D01*
X26237802Y-90686870D01*
X26122198Y-90686870D01*
X26112556Y-90684952D01*
X26102990Y-90684952D01*
X26075425Y-90677566D01*
X26008818Y-90664317D01*
X25977383Y-90651296D01*
X25954217Y-90645089D01*
X25933446Y-90633096D01*
X25902011Y-90620076D01*
X25845544Y-90582346D01*
X25820831Y-90568078D01*
X25814066Y-90561313D01*
X25805894Y-90555853D01*
X25724146Y-90474105D01*
X25718685Y-90465932D01*
X25711922Y-90459169D01*
X25697655Y-90434459D01*
X25659923Y-90377988D01*
X25646900Y-90346550D01*
X25634911Y-90325783D01*
X25628704Y-90302620D01*
X25615682Y-90271181D01*
X25602430Y-90204561D01*
X25595048Y-90177010D01*
X25594113Y-90162749D01*
X25592840Y-90156349D01*
X25590289Y-90104418D01*
X25590000Y-90100000D01*
X25590000Y-89500000D01*
X25590289Y-89495584D01*
X25592840Y-89443650D01*
X25594113Y-89437248D01*
X25595048Y-89422990D01*
X25602429Y-89395441D01*
X25615682Y-89328818D01*
X25628705Y-89297376D01*
X25634911Y-89274217D01*
X25646899Y-89253452D01*
X25659923Y-89222011D01*
X25697660Y-89165533D01*
X25711922Y-89140831D01*
X25718682Y-89134070D01*
X25724146Y-89125894D01*
X25805894Y-89044146D01*
X25814070Y-89038682D01*
X25820831Y-89031922D01*
X25845533Y-89017660D01*
X25902011Y-88979923D01*
X25933452Y-88966899D01*
X25954217Y-88954911D01*
X25977376Y-88948705D01*
X26008818Y-88935682D01*
X26075431Y-88922432D01*
X26102990Y-88915048D01*
X26112555Y-88915048D01*
X26122198Y-88913130D01*
X26237802Y-88913130D01*
X26247445Y-88915048D01*
G37*
G36*
X34887445Y-88915048D02*
G01*
X34897010Y-88915048D01*
X34924569Y-88922432D01*
X34991181Y-88935682D01*
X35022620Y-88948704D01*
X35045783Y-88954911D01*
X35066550Y-88966900D01*
X35097988Y-88979923D01*
X35154459Y-89017655D01*
X35179169Y-89031922D01*
X35185932Y-89038685D01*
X35194105Y-89044146D01*
X35275853Y-89125894D01*
X35281313Y-89134066D01*
X35288078Y-89140831D01*
X35302346Y-89165544D01*
X35340076Y-89222011D01*
X35353096Y-89253446D01*
X35365089Y-89274217D01*
X35371296Y-89297383D01*
X35384317Y-89328818D01*
X35397566Y-89395427D01*
X35404952Y-89422990D01*
X35405887Y-89437256D01*
X35407159Y-89443650D01*
X35409710Y-89495578D01*
X35410000Y-89500000D01*
X35410000Y-90100000D01*
X35409709Y-90104424D01*
X35407159Y-90156349D01*
X35405887Y-90162742D01*
X35404952Y-90177010D01*
X35397565Y-90204575D01*
X35384317Y-90271181D01*
X35371297Y-90302613D01*
X35365089Y-90325783D01*
X35353095Y-90346556D01*
X35340076Y-90377988D01*
X35302350Y-90434448D01*
X35288078Y-90459169D01*
X35281311Y-90465935D01*
X35275853Y-90474105D01*
X35194105Y-90555853D01*
X35185935Y-90561311D01*
X35179169Y-90568078D01*
X35154448Y-90582350D01*
X35097988Y-90620076D01*
X35066556Y-90633095D01*
X35045783Y-90645089D01*
X35022613Y-90651297D01*
X34991181Y-90664317D01*
X34924575Y-90677565D01*
X34897010Y-90684952D01*
X34887444Y-90684952D01*
X34877802Y-90686870D01*
X34762198Y-90686870D01*
X34752556Y-90684952D01*
X34742990Y-90684952D01*
X34715425Y-90677566D01*
X34648818Y-90664317D01*
X34617383Y-90651296D01*
X34594217Y-90645089D01*
X34573446Y-90633096D01*
X34542011Y-90620076D01*
X34485544Y-90582346D01*
X34460831Y-90568078D01*
X34454066Y-90561313D01*
X34445894Y-90555853D01*
X34364146Y-90474105D01*
X34358685Y-90465932D01*
X34351922Y-90459169D01*
X34337655Y-90434459D01*
X34299923Y-90377988D01*
X34286900Y-90346550D01*
X34274911Y-90325783D01*
X34268704Y-90302620D01*
X34255682Y-90271181D01*
X34242430Y-90204561D01*
X34235048Y-90177010D01*
X34234113Y-90162749D01*
X34232840Y-90156349D01*
X34230289Y-90104418D01*
X34230000Y-90100000D01*
X34230000Y-89500000D01*
X34230289Y-89495584D01*
X34232840Y-89443650D01*
X34234113Y-89437248D01*
X34235048Y-89422990D01*
X34242429Y-89395441D01*
X34255682Y-89328818D01*
X34268705Y-89297376D01*
X34274911Y-89274217D01*
X34286899Y-89253452D01*
X34299923Y-89222011D01*
X34337660Y-89165533D01*
X34351922Y-89140831D01*
X34358682Y-89134070D01*
X34364146Y-89125894D01*
X34445894Y-89044146D01*
X34454070Y-89038682D01*
X34460831Y-89031922D01*
X34485533Y-89017660D01*
X34542011Y-88979923D01*
X34573452Y-88966899D01*
X34594217Y-88954911D01*
X34617376Y-88948705D01*
X34648818Y-88935682D01*
X34715431Y-88922432D01*
X34742990Y-88915048D01*
X34752555Y-88915048D01*
X34762198Y-88913130D01*
X34877802Y-88913130D01*
X34887445Y-88915048D01*
G37*
G36*
X17349212Y-86994394D02*
G01*
X17575377Y-87054995D01*
X17791697Y-87144598D01*
X17994471Y-87261669D01*
X18180229Y-87404207D01*
X18345793Y-87569771D01*
X18488331Y-87755529D01*
X18605402Y-87958303D01*
X18695005Y-88174623D01*
X18755606Y-88400788D01*
X18786167Y-88632928D01*
X18786167Y-88867072D01*
X18755606Y-89099212D01*
X18695005Y-89325377D01*
X18605402Y-89541697D01*
X18488331Y-89744471D01*
X18345793Y-89930229D01*
X18180229Y-90095793D01*
X17994471Y-90238331D01*
X17791697Y-90355402D01*
X17575377Y-90445005D01*
X17349212Y-90505606D01*
X17117072Y-90536167D01*
X16882928Y-90536167D01*
X16650788Y-90505606D01*
X16424623Y-90445005D01*
X16208303Y-90355402D01*
X16005529Y-90238331D01*
X15819771Y-90095793D01*
X15654207Y-89930229D01*
X15511669Y-89744471D01*
X15394598Y-89541697D01*
X15304995Y-89325377D01*
X15244394Y-89099212D01*
X15213833Y-88867072D01*
X15213833Y-88632928D01*
X15244394Y-88400788D01*
X15304995Y-88174623D01*
X15394598Y-87958303D01*
X15511669Y-87755529D01*
X15654207Y-87569771D01*
X15819771Y-87404207D01*
X16005529Y-87261669D01*
X16208303Y-87144598D01*
X16424623Y-87054995D01*
X16650788Y-86994394D01*
X16882928Y-86963833D01*
X17117072Y-86963833D01*
X17349212Y-86994394D01*
G37*
G36*
X80849212Y-86744394D02*
G01*
X81075377Y-86804995D01*
X81291697Y-86894598D01*
X81494471Y-87011669D01*
X81680229Y-87154207D01*
X81845793Y-87319771D01*
X81988331Y-87505529D01*
X82105402Y-87708303D01*
X82195005Y-87924623D01*
X82255606Y-88150788D01*
X82286167Y-88382928D01*
X82286167Y-88617072D01*
X82255606Y-88849212D01*
X82195005Y-89075377D01*
X82105402Y-89291697D01*
X81988331Y-89494471D01*
X81845793Y-89680229D01*
X81680229Y-89845793D01*
X81494471Y-89988331D01*
X81291697Y-90105402D01*
X81075377Y-90195005D01*
X80849212Y-90255606D01*
X80617072Y-90286167D01*
X80382928Y-90286167D01*
X80150788Y-90255606D01*
X79924623Y-90195005D01*
X79708303Y-90105402D01*
X79505529Y-89988331D01*
X79319771Y-89845793D01*
X79154207Y-89680229D01*
X79011669Y-89494471D01*
X78894598Y-89291697D01*
X78804995Y-89075377D01*
X78744394Y-88849212D01*
X78713833Y-88617072D01*
X78713833Y-88382928D01*
X78744394Y-88150788D01*
X78804995Y-87924623D01*
X78894598Y-87708303D01*
X79011669Y-87505529D01*
X79154207Y-87319771D01*
X79319771Y-87154207D01*
X79505529Y-87011669D01*
X79708303Y-86894598D01*
X79924623Y-86804995D01*
X80150788Y-86744394D01*
X80382928Y-86713833D01*
X80617072Y-86713833D01*
X80849212Y-86744394D01*
G37*
G36*
X45211396Y-86392703D02*
G01*
X45220196Y-86396588D01*
X45226938Y-86397571D01*
X45269080Y-86418173D01*
X45308890Y-86435751D01*
X45312576Y-86439437D01*
X45313028Y-86439658D01*
X45380341Y-86506971D01*
X45380561Y-86507422D01*
X45384249Y-86511110D01*
X45401831Y-86550929D01*
X45422428Y-86593061D01*
X45423409Y-86599800D01*
X45427297Y-86608604D01*
X45435000Y-86675000D01*
X45435000Y-88365000D01*
X45427297Y-88431396D01*
X45423409Y-88440199D01*
X45422428Y-88446938D01*
X45401835Y-88489059D01*
X45384249Y-88528890D01*
X45380560Y-88532578D01*
X45380341Y-88533028D01*
X45313028Y-88600341D01*
X45312578Y-88600560D01*
X45308890Y-88604249D01*
X45269059Y-88621835D01*
X45226938Y-88642428D01*
X45220199Y-88643409D01*
X45211396Y-88647297D01*
X45145000Y-88655000D01*
X43905000Y-88655000D01*
X43838604Y-88647297D01*
X43829800Y-88643409D01*
X43823061Y-88642428D01*
X43780929Y-88621831D01*
X43741110Y-88604249D01*
X43737422Y-88600561D01*
X43736971Y-88600341D01*
X43669658Y-88533028D01*
X43669437Y-88532576D01*
X43665751Y-88528890D01*
X43648173Y-88489080D01*
X43627571Y-88446938D01*
X43626588Y-88440196D01*
X43622703Y-88431396D01*
X43615000Y-88365000D01*
X43615000Y-86675000D01*
X43622703Y-86608604D01*
X43626588Y-86599803D01*
X43627571Y-86593061D01*
X43648178Y-86550908D01*
X43665751Y-86511110D01*
X43669436Y-86507424D01*
X43669658Y-86506971D01*
X43736971Y-86439658D01*
X43737424Y-86439436D01*
X43741110Y-86435751D01*
X43780908Y-86418178D01*
X43823061Y-86397571D01*
X43829803Y-86396588D01*
X43838604Y-86392703D01*
X43905000Y-86385000D01*
X45145000Y-86385000D01*
X45211396Y-86392703D01*
G37*
G36*
X42249159Y-86424184D02*
G01*
X42413971Y-86492452D01*
X42562298Y-86591560D01*
X42688440Y-86717702D01*
X42787548Y-86866029D01*
X42855816Y-87030841D01*
X42890618Y-87205804D01*
X42895000Y-87295000D01*
X42895000Y-87745000D01*
X42890618Y-87834196D01*
X42855816Y-88009159D01*
X42787548Y-88173971D01*
X42688440Y-88322298D01*
X42562298Y-88448440D01*
X42413971Y-88547548D01*
X42249159Y-88615816D01*
X42074196Y-88650618D01*
X41895804Y-88650618D01*
X41720841Y-88615816D01*
X41556029Y-88547548D01*
X41407702Y-88448440D01*
X41281560Y-88322298D01*
X41182452Y-88173971D01*
X41114184Y-88009159D01*
X41079382Y-87834196D01*
X41075000Y-87745000D01*
X41075000Y-87295000D01*
X41079382Y-87205804D01*
X41114184Y-87030841D01*
X41182452Y-86866029D01*
X41281560Y-86717702D01*
X41407702Y-86591560D01*
X41556029Y-86492452D01*
X41720841Y-86424184D01*
X41895804Y-86389382D01*
X42074196Y-86389382D01*
X42249159Y-86424184D01*
G37*
G36*
X26247445Y-85115048D02*
G01*
X26257010Y-85115048D01*
X26284569Y-85122432D01*
X26351181Y-85135682D01*
X26382620Y-85148704D01*
X26405783Y-85154911D01*
X26426550Y-85166900D01*
X26457988Y-85179923D01*
X26514459Y-85217655D01*
X26539169Y-85231922D01*
X26545932Y-85238685D01*
X26554105Y-85244146D01*
X26635853Y-85325894D01*
X26641313Y-85334066D01*
X26648078Y-85340831D01*
X26662346Y-85365544D01*
X26700076Y-85422011D01*
X26713096Y-85453446D01*
X26725089Y-85474217D01*
X26731296Y-85497383D01*
X26744317Y-85528818D01*
X26757566Y-85595427D01*
X26764952Y-85622990D01*
X26765887Y-85637256D01*
X26767159Y-85643650D01*
X26769710Y-85695578D01*
X26770000Y-85700000D01*
X26770000Y-86300000D01*
X26769709Y-86304424D01*
X26767159Y-86356349D01*
X26765887Y-86362742D01*
X26764952Y-86377010D01*
X26757565Y-86404575D01*
X26744317Y-86471181D01*
X26731297Y-86502613D01*
X26725089Y-86525783D01*
X26713095Y-86546556D01*
X26700076Y-86577988D01*
X26662350Y-86634448D01*
X26648078Y-86659169D01*
X26641311Y-86665935D01*
X26635853Y-86674105D01*
X26554105Y-86755853D01*
X26545935Y-86761311D01*
X26539169Y-86768078D01*
X26514448Y-86782350D01*
X26457988Y-86820076D01*
X26426556Y-86833095D01*
X26405783Y-86845089D01*
X26382613Y-86851297D01*
X26351181Y-86864317D01*
X26284575Y-86877565D01*
X26257010Y-86884952D01*
X26247444Y-86884952D01*
X26237802Y-86886870D01*
X26122198Y-86886870D01*
X26112556Y-86884952D01*
X26102990Y-86884952D01*
X26075425Y-86877566D01*
X26008818Y-86864317D01*
X25977383Y-86851296D01*
X25954217Y-86845089D01*
X25933446Y-86833096D01*
X25902011Y-86820076D01*
X25845544Y-86782346D01*
X25820831Y-86768078D01*
X25814066Y-86761313D01*
X25805894Y-86755853D01*
X25724146Y-86674105D01*
X25718685Y-86665932D01*
X25711922Y-86659169D01*
X25697655Y-86634459D01*
X25659923Y-86577988D01*
X25646900Y-86546550D01*
X25634911Y-86525783D01*
X25628704Y-86502620D01*
X25615682Y-86471181D01*
X25602430Y-86404561D01*
X25595048Y-86377010D01*
X25594113Y-86362749D01*
X25592840Y-86356349D01*
X25590289Y-86304418D01*
X25590000Y-86300000D01*
X25590000Y-85700000D01*
X25590289Y-85695584D01*
X25592840Y-85643650D01*
X25594113Y-85637248D01*
X25595048Y-85622990D01*
X25602429Y-85595441D01*
X25615682Y-85528818D01*
X25628705Y-85497376D01*
X25634911Y-85474217D01*
X25646899Y-85453452D01*
X25659923Y-85422011D01*
X25697660Y-85365533D01*
X25711922Y-85340831D01*
X25718682Y-85334070D01*
X25724146Y-85325894D01*
X25805894Y-85244146D01*
X25814070Y-85238682D01*
X25820831Y-85231922D01*
X25845533Y-85217660D01*
X25902011Y-85179923D01*
X25933452Y-85166899D01*
X25954217Y-85154911D01*
X25977376Y-85148705D01*
X26008818Y-85135682D01*
X26075431Y-85122432D01*
X26102990Y-85115048D01*
X26112555Y-85115048D01*
X26122198Y-85113130D01*
X26237802Y-85113130D01*
X26247445Y-85115048D01*
G37*
G36*
X34887445Y-85115048D02*
G01*
X34897010Y-85115048D01*
X34924569Y-85122432D01*
X34991181Y-85135682D01*
X35022620Y-85148704D01*
X35045783Y-85154911D01*
X35066550Y-85166900D01*
X35097988Y-85179923D01*
X35154459Y-85217655D01*
X35179169Y-85231922D01*
X35185932Y-85238685D01*
X35194105Y-85244146D01*
X35275853Y-85325894D01*
X35281313Y-85334066D01*
X35288078Y-85340831D01*
X35302346Y-85365544D01*
X35340076Y-85422011D01*
X35353096Y-85453446D01*
X35365089Y-85474217D01*
X35371296Y-85497383D01*
X35384317Y-85528818D01*
X35397566Y-85595427D01*
X35404952Y-85622990D01*
X35405887Y-85637256D01*
X35407159Y-85643650D01*
X35409710Y-85695578D01*
X35410000Y-85700000D01*
X35410000Y-86300000D01*
X35409709Y-86304424D01*
X35407159Y-86356349D01*
X35405887Y-86362742D01*
X35404952Y-86377010D01*
X35397565Y-86404575D01*
X35384317Y-86471181D01*
X35371297Y-86502613D01*
X35365089Y-86525783D01*
X35353095Y-86546556D01*
X35340076Y-86577988D01*
X35302350Y-86634448D01*
X35288078Y-86659169D01*
X35281311Y-86665935D01*
X35275853Y-86674105D01*
X35194105Y-86755853D01*
X35185935Y-86761311D01*
X35179169Y-86768078D01*
X35154448Y-86782350D01*
X35097988Y-86820076D01*
X35066556Y-86833095D01*
X35045783Y-86845089D01*
X35022613Y-86851297D01*
X34991181Y-86864317D01*
X34924575Y-86877565D01*
X34897010Y-86884952D01*
X34887444Y-86884952D01*
X34877802Y-86886870D01*
X34762198Y-86886870D01*
X34752556Y-86884952D01*
X34742990Y-86884952D01*
X34715425Y-86877566D01*
X34648818Y-86864317D01*
X34617383Y-86851296D01*
X34594217Y-86845089D01*
X34573446Y-86833096D01*
X34542011Y-86820076D01*
X34485544Y-86782346D01*
X34460831Y-86768078D01*
X34454066Y-86761313D01*
X34445894Y-86755853D01*
X34364146Y-86674105D01*
X34358685Y-86665932D01*
X34351922Y-86659169D01*
X34337655Y-86634459D01*
X34299923Y-86577988D01*
X34286900Y-86546550D01*
X34274911Y-86525783D01*
X34268704Y-86502620D01*
X34255682Y-86471181D01*
X34242430Y-86404561D01*
X34235048Y-86377010D01*
X34234113Y-86362749D01*
X34232840Y-86356349D01*
X34230289Y-86304418D01*
X34230000Y-86300000D01*
X34230000Y-85700000D01*
X34230289Y-85695584D01*
X34232840Y-85643650D01*
X34234113Y-85637248D01*
X34235048Y-85622990D01*
X34242429Y-85595441D01*
X34255682Y-85528818D01*
X34268705Y-85497376D01*
X34274911Y-85474217D01*
X34286899Y-85453452D01*
X34299923Y-85422011D01*
X34337660Y-85365533D01*
X34351922Y-85340831D01*
X34358682Y-85334070D01*
X34364146Y-85325894D01*
X34445894Y-85244146D01*
X34454070Y-85238682D01*
X34460831Y-85231922D01*
X34485533Y-85217660D01*
X34542011Y-85179923D01*
X34573452Y-85166899D01*
X34594217Y-85154911D01*
X34617376Y-85148705D01*
X34648818Y-85135682D01*
X34715431Y-85122432D01*
X34742990Y-85115048D01*
X34752555Y-85115048D01*
X34762198Y-85113130D01*
X34877802Y-85113130D01*
X34887445Y-85115048D01*
G37*
G36*
X38916396Y-84717703D02*
G01*
X38925196Y-84721588D01*
X38931938Y-84722571D01*
X38974080Y-84743173D01*
X39013890Y-84760751D01*
X39017576Y-84764437D01*
X39018028Y-84764658D01*
X39085341Y-84831971D01*
X39085561Y-84832422D01*
X39089249Y-84836110D01*
X39106831Y-84875929D01*
X39127428Y-84918061D01*
X39128409Y-84924800D01*
X39132297Y-84933604D01*
X39140000Y-85000000D01*
X39140000Y-85700000D01*
X39132297Y-85766396D01*
X39128409Y-85775199D01*
X39127428Y-85781938D01*
X39106835Y-85824059D01*
X39089249Y-85863890D01*
X39085560Y-85867578D01*
X39085341Y-85868028D01*
X39018028Y-85935341D01*
X39017578Y-85935560D01*
X39013890Y-85939249D01*
X38974059Y-85956835D01*
X38931938Y-85977428D01*
X38925199Y-85978409D01*
X38916396Y-85982297D01*
X38850000Y-85990000D01*
X37950000Y-85990000D01*
X37883604Y-85982297D01*
X37874800Y-85978409D01*
X37868061Y-85977428D01*
X37825929Y-85956831D01*
X37786110Y-85939249D01*
X37782422Y-85935561D01*
X37781971Y-85935341D01*
X37714658Y-85868028D01*
X37714437Y-85867576D01*
X37710751Y-85863890D01*
X37693173Y-85824080D01*
X37672571Y-85781938D01*
X37671588Y-85775196D01*
X37667703Y-85766396D01*
X37660000Y-85700000D01*
X37660000Y-85000000D01*
X37667703Y-84933604D01*
X37671588Y-84924803D01*
X37672571Y-84918061D01*
X37693178Y-84875908D01*
X37710751Y-84836110D01*
X37714436Y-84832424D01*
X37714658Y-84831971D01*
X37781971Y-84764658D01*
X37782424Y-84764436D01*
X37786110Y-84760751D01*
X37825908Y-84743178D01*
X37868061Y-84722571D01*
X37874803Y-84721588D01*
X37883604Y-84717703D01*
X37950000Y-84710000D01*
X38850000Y-84710000D01*
X38916396Y-84717703D01*
G37*
G36*
X38916396Y-82717703D02*
G01*
X38925196Y-82721588D01*
X38931938Y-82722571D01*
X38974080Y-82743173D01*
X39013890Y-82760751D01*
X39017576Y-82764437D01*
X39018028Y-82764658D01*
X39085341Y-82831971D01*
X39085561Y-82832422D01*
X39089249Y-82836110D01*
X39106831Y-82875929D01*
X39127428Y-82918061D01*
X39128409Y-82924800D01*
X39132297Y-82933604D01*
X39140000Y-83000000D01*
X39140000Y-83700000D01*
X39132297Y-83766396D01*
X39128409Y-83775199D01*
X39127428Y-83781938D01*
X39106835Y-83824059D01*
X39089249Y-83863890D01*
X39085560Y-83867578D01*
X39085341Y-83868028D01*
X39018028Y-83935341D01*
X39017578Y-83935560D01*
X39013890Y-83939249D01*
X38974059Y-83956835D01*
X38931938Y-83977428D01*
X38925199Y-83978409D01*
X38916396Y-83982297D01*
X38850000Y-83990000D01*
X37950000Y-83990000D01*
X37883604Y-83982297D01*
X37874800Y-83978409D01*
X37868061Y-83977428D01*
X37825929Y-83956831D01*
X37786110Y-83939249D01*
X37782422Y-83935561D01*
X37781971Y-83935341D01*
X37714658Y-83868028D01*
X37714437Y-83867576D01*
X37710751Y-83863890D01*
X37693173Y-83824080D01*
X37672571Y-83781938D01*
X37671588Y-83775196D01*
X37667703Y-83766396D01*
X37660000Y-83700000D01*
X37660000Y-83000000D01*
X37667703Y-82933604D01*
X37671588Y-82924803D01*
X37672571Y-82918061D01*
X37693178Y-82875908D01*
X37710751Y-82836110D01*
X37714436Y-82832424D01*
X37714658Y-82831971D01*
X37781971Y-82764658D01*
X37782424Y-82764436D01*
X37786110Y-82760751D01*
X37825908Y-82743178D01*
X37868061Y-82722571D01*
X37874803Y-82721588D01*
X37883604Y-82717703D01*
X37950000Y-82710000D01*
X38850000Y-82710000D01*
X38916396Y-82717703D01*
G37*
G36*
X33716396Y-81067703D02*
G01*
X33725196Y-81071588D01*
X33731938Y-81072571D01*
X33774080Y-81093173D01*
X33813890Y-81110751D01*
X33817576Y-81114437D01*
X33818028Y-81114658D01*
X33885341Y-81181971D01*
X33885561Y-81182422D01*
X33889249Y-81186110D01*
X33906831Y-81225929D01*
X33927428Y-81268061D01*
X33928409Y-81274800D01*
X33932297Y-81283604D01*
X33940000Y-81350000D01*
X33940000Y-82175000D01*
X33932297Y-82241396D01*
X33928409Y-82250199D01*
X33927428Y-82256938D01*
X33906835Y-82299059D01*
X33889249Y-82338890D01*
X33885560Y-82342578D01*
X33885341Y-82343028D01*
X33818028Y-82410341D01*
X33817578Y-82410560D01*
X33813890Y-82414249D01*
X33774059Y-82431835D01*
X33731938Y-82452428D01*
X33725199Y-82453409D01*
X33716396Y-82457297D01*
X33650000Y-82465000D01*
X32350000Y-82465000D01*
X32283604Y-82457297D01*
X32274800Y-82453409D01*
X32268061Y-82452428D01*
X32225929Y-82431831D01*
X32186110Y-82414249D01*
X32182422Y-82410561D01*
X32181971Y-82410341D01*
X32114658Y-82343028D01*
X32114437Y-82342576D01*
X32110751Y-82338890D01*
X32093173Y-82299080D01*
X32072571Y-82256938D01*
X32071588Y-82250196D01*
X32067703Y-82241396D01*
X32060000Y-82175000D01*
X32060000Y-81350000D01*
X32067703Y-81283604D01*
X32071588Y-81274803D01*
X32072571Y-81268061D01*
X32093178Y-81225908D01*
X32110751Y-81186110D01*
X32114436Y-81182424D01*
X32114658Y-81181971D01*
X32181971Y-81114658D01*
X32182424Y-81114436D01*
X32186110Y-81110751D01*
X32225908Y-81093178D01*
X32268061Y-81072571D01*
X32274803Y-81071588D01*
X32283604Y-81067703D01*
X32350000Y-81060000D01*
X33650000Y-81060000D01*
X33716396Y-81067703D01*
G37*
G36*
X24516396Y-80667703D02*
G01*
X24525196Y-80671588D01*
X24531938Y-80672571D01*
X24574080Y-80693173D01*
X24613890Y-80710751D01*
X24617576Y-80714437D01*
X24618028Y-80714658D01*
X24685341Y-80781971D01*
X24685561Y-80782422D01*
X24689249Y-80786110D01*
X24706831Y-80825929D01*
X24727428Y-80868061D01*
X24728409Y-80874800D01*
X24732297Y-80883604D01*
X24740000Y-80950000D01*
X24740000Y-81775000D01*
X24732297Y-81841396D01*
X24728409Y-81850199D01*
X24727428Y-81856938D01*
X24706835Y-81899059D01*
X24689249Y-81938890D01*
X24685560Y-81942578D01*
X24685341Y-81943028D01*
X24618028Y-82010341D01*
X24617578Y-82010560D01*
X24613890Y-82014249D01*
X24574059Y-82031835D01*
X24531938Y-82052428D01*
X24525199Y-82053409D01*
X24516396Y-82057297D01*
X24450000Y-82065000D01*
X23150000Y-82065000D01*
X23083604Y-82057297D01*
X23074800Y-82053409D01*
X23068061Y-82052428D01*
X23025929Y-82031831D01*
X22986110Y-82014249D01*
X22982422Y-82010561D01*
X22981971Y-82010341D01*
X22914658Y-81943028D01*
X22914437Y-81942576D01*
X22910751Y-81938890D01*
X22893173Y-81899080D01*
X22872571Y-81856938D01*
X22871588Y-81850196D01*
X22867703Y-81841396D01*
X22860000Y-81775000D01*
X22860000Y-80950000D01*
X22867703Y-80883604D01*
X22871588Y-80874803D01*
X22872571Y-80868061D01*
X22893178Y-80825908D01*
X22910751Y-80786110D01*
X22914436Y-80782424D01*
X22914658Y-80781971D01*
X22981971Y-80714658D01*
X22982424Y-80714436D01*
X22986110Y-80710751D01*
X23025908Y-80693178D01*
X23068061Y-80672571D01*
X23074803Y-80671588D01*
X23083604Y-80667703D01*
X23150000Y-80660000D01*
X24450000Y-80660000D01*
X24516396Y-80667703D01*
G37*
G36*
X38916396Y-79917703D02*
G01*
X38925196Y-79921588D01*
X38931938Y-79922571D01*
X38974080Y-79943173D01*
X39013890Y-79960751D01*
X39017576Y-79964437D01*
X39018028Y-79964658D01*
X39085341Y-80031971D01*
X39085561Y-80032422D01*
X39089249Y-80036110D01*
X39106831Y-80075929D01*
X39127428Y-80118061D01*
X39128409Y-80124800D01*
X39132297Y-80133604D01*
X39140000Y-80200000D01*
X39140000Y-80900000D01*
X39132297Y-80966396D01*
X39128409Y-80975199D01*
X39127428Y-80981938D01*
X39106835Y-81024059D01*
X39089249Y-81063890D01*
X39085560Y-81067578D01*
X39085341Y-81068028D01*
X39018028Y-81135341D01*
X39017578Y-81135560D01*
X39013890Y-81139249D01*
X38974059Y-81156835D01*
X38931938Y-81177428D01*
X38925199Y-81178409D01*
X38916396Y-81182297D01*
X38850000Y-81190000D01*
X37950000Y-81190000D01*
X37883604Y-81182297D01*
X37874800Y-81178409D01*
X37868061Y-81177428D01*
X37825929Y-81156831D01*
X37786110Y-81139249D01*
X37782422Y-81135561D01*
X37781971Y-81135341D01*
X37714658Y-81068028D01*
X37714437Y-81067576D01*
X37710751Y-81063890D01*
X37693173Y-81024080D01*
X37672571Y-80981938D01*
X37671588Y-80975196D01*
X37667703Y-80966396D01*
X37660000Y-80900000D01*
X37660000Y-80200000D01*
X37667703Y-80133604D01*
X37671588Y-80124803D01*
X37672571Y-80118061D01*
X37693178Y-80075908D01*
X37710751Y-80036110D01*
X37714436Y-80032424D01*
X37714658Y-80031971D01*
X37781971Y-79964658D01*
X37782424Y-79964436D01*
X37786110Y-79960751D01*
X37825908Y-79943178D01*
X37868061Y-79922571D01*
X37874803Y-79921588D01*
X37883604Y-79917703D01*
X37950000Y-79910000D01*
X38850000Y-79910000D01*
X38916396Y-79917703D01*
G37*
G36*
X26847710Y-79824463D02*
G01*
X26909350Y-79865650D01*
X26950537Y-79927290D01*
X26965000Y-80000000D01*
X26965000Y-80300000D01*
X26950537Y-80372710D01*
X26909350Y-80434350D01*
X26847710Y-80475537D01*
X26775000Y-80490000D01*
X25750000Y-80490000D01*
X25677290Y-80475537D01*
X25615650Y-80434350D01*
X25574463Y-80372710D01*
X25560000Y-80300000D01*
X25560000Y-80000000D01*
X25574463Y-79927290D01*
X25615650Y-79865650D01*
X25677290Y-79824463D01*
X25750000Y-79810000D01*
X26775000Y-79810000D01*
X26847710Y-79824463D01*
G37*
G36*
X29122710Y-79824463D02*
G01*
X29184350Y-79865650D01*
X29225537Y-79927290D01*
X29240000Y-80000000D01*
X29240000Y-80300000D01*
X29225537Y-80372710D01*
X29184350Y-80434350D01*
X29122710Y-80475537D01*
X29050000Y-80490000D01*
X28025000Y-80490000D01*
X27952290Y-80475537D01*
X27890650Y-80434350D01*
X27849463Y-80372710D01*
X27835000Y-80300000D01*
X27835000Y-80000000D01*
X27849463Y-79927290D01*
X27890650Y-79865650D01*
X27952290Y-79824463D01*
X28025000Y-79810000D01*
X29050000Y-79810000D01*
X29122710Y-79824463D01*
G37*
G36*
X26847710Y-78874463D02*
G01*
X26909350Y-78915650D01*
X26950537Y-78977290D01*
X26965000Y-79050000D01*
X26965000Y-79350000D01*
X26950537Y-79422710D01*
X26909350Y-79484350D01*
X26847710Y-79525537D01*
X26775000Y-79540000D01*
X25750000Y-79540000D01*
X25677290Y-79525537D01*
X25615650Y-79484350D01*
X25574463Y-79422710D01*
X25560000Y-79350000D01*
X25560000Y-79050000D01*
X25574463Y-78977290D01*
X25615650Y-78915650D01*
X25677290Y-78874463D01*
X25750000Y-78860000D01*
X26775000Y-78860000D01*
X26847710Y-78874463D01*
G37*
G36*
X29122710Y-78874463D02*
G01*
X29184350Y-78915650D01*
X29225537Y-78977290D01*
X29240000Y-79050000D01*
X29240000Y-79350000D01*
X29225537Y-79422710D01*
X29184350Y-79484350D01*
X29122710Y-79525537D01*
X29050000Y-79540000D01*
X28025000Y-79540000D01*
X27952290Y-79525537D01*
X27890650Y-79484350D01*
X27849463Y-79422710D01*
X27835000Y-79350000D01*
X27835000Y-79050000D01*
X27849463Y-78977290D01*
X27890650Y-78915650D01*
X27952290Y-78874463D01*
X28025000Y-78860000D01*
X29050000Y-78860000D01*
X29122710Y-78874463D01*
G37*
G36*
X33716396Y-77942703D02*
G01*
X33725196Y-77946588D01*
X33731938Y-77947571D01*
X33774080Y-77968173D01*
X33813890Y-77985751D01*
X33817576Y-77989437D01*
X33818028Y-77989658D01*
X33885341Y-78056971D01*
X33885561Y-78057422D01*
X33889249Y-78061110D01*
X33906831Y-78100929D01*
X33927428Y-78143061D01*
X33928409Y-78149800D01*
X33932297Y-78158604D01*
X33940000Y-78225000D01*
X33940000Y-79050000D01*
X33932297Y-79116396D01*
X33928409Y-79125199D01*
X33927428Y-79131938D01*
X33906835Y-79174059D01*
X33889249Y-79213890D01*
X33885560Y-79217578D01*
X33885341Y-79218028D01*
X33818028Y-79285341D01*
X33817578Y-79285560D01*
X33813890Y-79289249D01*
X33774059Y-79306835D01*
X33731938Y-79327428D01*
X33725199Y-79328409D01*
X33716396Y-79332297D01*
X33650000Y-79340000D01*
X32350000Y-79340000D01*
X32283604Y-79332297D01*
X32274800Y-79328409D01*
X32268061Y-79327428D01*
X32225929Y-79306831D01*
X32186110Y-79289249D01*
X32182422Y-79285561D01*
X32181971Y-79285341D01*
X32114658Y-79218028D01*
X32114437Y-79217576D01*
X32110751Y-79213890D01*
X32093173Y-79174080D01*
X32072571Y-79131938D01*
X32071588Y-79125196D01*
X32067703Y-79116396D01*
X32060000Y-79050000D01*
X32060000Y-78225000D01*
X32067703Y-78158604D01*
X32071588Y-78149803D01*
X32072571Y-78143061D01*
X32093178Y-78100908D01*
X32110751Y-78061110D01*
X32114436Y-78057424D01*
X32114658Y-78056971D01*
X32181971Y-77989658D01*
X32182424Y-77989436D01*
X32186110Y-77985751D01*
X32225908Y-77968178D01*
X32268061Y-77947571D01*
X32274803Y-77946588D01*
X32283604Y-77942703D01*
X32350000Y-77935000D01*
X33650000Y-77935000D01*
X33716396Y-77942703D01*
G37*
G36*
X38916396Y-77917703D02*
G01*
X38925196Y-77921588D01*
X38931938Y-77922571D01*
X38974080Y-77943173D01*
X39013890Y-77960751D01*
X39017576Y-77964437D01*
X39018028Y-77964658D01*
X39085341Y-78031971D01*
X39085561Y-78032422D01*
X39089249Y-78036110D01*
X39106831Y-78075929D01*
X39127428Y-78118061D01*
X39128409Y-78124800D01*
X39132297Y-78133604D01*
X39140000Y-78200000D01*
X39140000Y-78900000D01*
X39132297Y-78966396D01*
X39128409Y-78975199D01*
X39127428Y-78981938D01*
X39106835Y-79024059D01*
X39089249Y-79063890D01*
X39085560Y-79067578D01*
X39085341Y-79068028D01*
X39018028Y-79135341D01*
X39017578Y-79135560D01*
X39013890Y-79139249D01*
X38974059Y-79156835D01*
X38931938Y-79177428D01*
X38925199Y-79178409D01*
X38916396Y-79182297D01*
X38850000Y-79190000D01*
X37950000Y-79190000D01*
X37883604Y-79182297D01*
X37874800Y-79178409D01*
X37868061Y-79177428D01*
X37825929Y-79156831D01*
X37786110Y-79139249D01*
X37782422Y-79135561D01*
X37781971Y-79135341D01*
X37714658Y-79068028D01*
X37714437Y-79067576D01*
X37710751Y-79063890D01*
X37693173Y-79024080D01*
X37672571Y-78981938D01*
X37671588Y-78975196D01*
X37667703Y-78966396D01*
X37660000Y-78900000D01*
X37660000Y-78200000D01*
X37667703Y-78133604D01*
X37671588Y-78124803D01*
X37672571Y-78118061D01*
X37693178Y-78075908D01*
X37710751Y-78036110D01*
X37714436Y-78032424D01*
X37714658Y-78031971D01*
X37781971Y-77964658D01*
X37782424Y-77964436D01*
X37786110Y-77960751D01*
X37825908Y-77943178D01*
X37868061Y-77922571D01*
X37874803Y-77921588D01*
X37883604Y-77917703D01*
X37950000Y-77910000D01*
X38850000Y-77910000D01*
X38916396Y-77917703D01*
G37*
G36*
X24516396Y-77542703D02*
G01*
X24525196Y-77546588D01*
X24531938Y-77547571D01*
X24574080Y-77568173D01*
X24613890Y-77585751D01*
X24617576Y-77589437D01*
X24618028Y-77589658D01*
X24685341Y-77656971D01*
X24685561Y-77657422D01*
X24689249Y-77661110D01*
X24706831Y-77700929D01*
X24727428Y-77743061D01*
X24728409Y-77749800D01*
X24732297Y-77758604D01*
X24740000Y-77825000D01*
X24740000Y-78650000D01*
X24732297Y-78716396D01*
X24728409Y-78725199D01*
X24727428Y-78731938D01*
X24706835Y-78774059D01*
X24689249Y-78813890D01*
X24685560Y-78817578D01*
X24685341Y-78818028D01*
X24618028Y-78885341D01*
X24617578Y-78885560D01*
X24613890Y-78889249D01*
X24574059Y-78906835D01*
X24531938Y-78927428D01*
X24525199Y-78928409D01*
X24516396Y-78932297D01*
X24450000Y-78940000D01*
X23150000Y-78940000D01*
X23083604Y-78932297D01*
X23074800Y-78928409D01*
X23068061Y-78927428D01*
X23025929Y-78906831D01*
X22986110Y-78889249D01*
X22982422Y-78885561D01*
X22981971Y-78885341D01*
X22914658Y-78818028D01*
X22914437Y-78817576D01*
X22910751Y-78813890D01*
X22893173Y-78774080D01*
X22872571Y-78731938D01*
X22871588Y-78725196D01*
X22867703Y-78716396D01*
X22860000Y-78650000D01*
X22860000Y-77825000D01*
X22867703Y-77758604D01*
X22871588Y-77749803D01*
X22872571Y-77743061D01*
X22893178Y-77700908D01*
X22910751Y-77661110D01*
X22914436Y-77657424D01*
X22914658Y-77656971D01*
X22981971Y-77589658D01*
X22982424Y-77589436D01*
X22986110Y-77585751D01*
X23025908Y-77568178D01*
X23068061Y-77547571D01*
X23074803Y-77546588D01*
X23083604Y-77542703D01*
X23150000Y-77535000D01*
X24450000Y-77535000D01*
X24516396Y-77542703D01*
G37*
G36*
X26847710Y-77924463D02*
G01*
X26909350Y-77965650D01*
X26950537Y-78027290D01*
X26965000Y-78100000D01*
X26965000Y-78400000D01*
X26950537Y-78472710D01*
X26909350Y-78534350D01*
X26847710Y-78575537D01*
X26775000Y-78590000D01*
X25750000Y-78590000D01*
X25677290Y-78575537D01*
X25615650Y-78534350D01*
X25574463Y-78472710D01*
X25560000Y-78400000D01*
X25560000Y-78100000D01*
X25574463Y-78027290D01*
X25615650Y-77965650D01*
X25677290Y-77924463D01*
X25750000Y-77910000D01*
X26775000Y-77910000D01*
X26847710Y-77924463D01*
G37*
G36*
X29122710Y-77924463D02*
G01*
X29184350Y-77965650D01*
X29225537Y-78027290D01*
X29240000Y-78100000D01*
X29240000Y-78400000D01*
X29225537Y-78472710D01*
X29184350Y-78534350D01*
X29122710Y-78575537D01*
X29050000Y-78590000D01*
X28025000Y-78590000D01*
X27952290Y-78575537D01*
X27890650Y-78534350D01*
X27849463Y-78472710D01*
X27835000Y-78400000D01*
X27835000Y-78100000D01*
X27849463Y-78027290D01*
X27890650Y-77965650D01*
X27952290Y-77924463D01*
X28025000Y-77910000D01*
X29050000Y-77910000D01*
X29122710Y-77924463D01*
G37*
G36*
X49865307Y-74863045D02*
G01*
X49878284Y-74871716D01*
X49886955Y-74884693D01*
X49890000Y-74900000D01*
X49890000Y-76600000D01*
X49886955Y-76615307D01*
X49878284Y-76628284D01*
X49865307Y-76636955D01*
X49850000Y-76640000D01*
X48150000Y-76640000D01*
X48134693Y-76636955D01*
X48121716Y-76628284D01*
X48113045Y-76615307D01*
X48110000Y-76600000D01*
X48110000Y-74900000D01*
X48113045Y-74884693D01*
X48121716Y-74871716D01*
X48134693Y-74863045D01*
X48150000Y-74860000D01*
X49850000Y-74860000D01*
X49865307Y-74863045D01*
G37*
G36*
X46718353Y-74898323D02*
G01*
X46879543Y-74965090D01*
X47024610Y-75062021D01*
X47147979Y-75185390D01*
X47244910Y-75330457D01*
X47311677Y-75491647D01*
X47345714Y-75662765D01*
X47345714Y-75837235D01*
X47311677Y-76008353D01*
X47244910Y-76169543D01*
X47147979Y-76314610D01*
X47024610Y-76437979D01*
X46879543Y-76534910D01*
X46718353Y-76601677D01*
X46547235Y-76635714D01*
X46372765Y-76635714D01*
X46201647Y-76601677D01*
X46040457Y-76534910D01*
X45895390Y-76437979D01*
X45772021Y-76314610D01*
X45675090Y-76169543D01*
X45608323Y-76008353D01*
X45574286Y-75837235D01*
X45574286Y-75662765D01*
X45608323Y-75491647D01*
X45675090Y-75330457D01*
X45772021Y-75185390D01*
X45895390Y-75062021D01*
X46040457Y-74965090D01*
X46201647Y-74898323D01*
X46372765Y-74864286D01*
X46547235Y-74864286D01*
X46718353Y-74898323D01*
G37*
G36*
X37866396Y-74667703D02*
G01*
X37875196Y-74671588D01*
X37881938Y-74672571D01*
X37924080Y-74693173D01*
X37963890Y-74710751D01*
X37967576Y-74714437D01*
X37968028Y-74714658D01*
X38035341Y-74781971D01*
X38035561Y-74782422D01*
X38039249Y-74786110D01*
X38056831Y-74825929D01*
X38077428Y-74868061D01*
X38078409Y-74874800D01*
X38082297Y-74883604D01*
X38090000Y-74950000D01*
X38090000Y-76250000D01*
X38082297Y-76316396D01*
X38078409Y-76325199D01*
X38077428Y-76331938D01*
X38056835Y-76374059D01*
X38039249Y-76413890D01*
X38035560Y-76417578D01*
X38035341Y-76418028D01*
X37968028Y-76485341D01*
X37967578Y-76485560D01*
X37963890Y-76489249D01*
X37924059Y-76506835D01*
X37881938Y-76527428D01*
X37875199Y-76528409D01*
X37866396Y-76532297D01*
X37800000Y-76540000D01*
X35800000Y-76540000D01*
X35733604Y-76532297D01*
X35724800Y-76528409D01*
X35718061Y-76527428D01*
X35675929Y-76506831D01*
X35636110Y-76489249D01*
X35632422Y-76485561D01*
X35631971Y-76485341D01*
X35564658Y-76418028D01*
X35564437Y-76417576D01*
X35560751Y-76413890D01*
X35543173Y-76374080D01*
X35522571Y-76331938D01*
X35521588Y-76325196D01*
X35517703Y-76316396D01*
X35510000Y-76250000D01*
X35510000Y-74950000D01*
X35517703Y-74883604D01*
X35521588Y-74874803D01*
X35522571Y-74868061D01*
X35543178Y-74825908D01*
X35560751Y-74786110D01*
X35564436Y-74782424D01*
X35564658Y-74781971D01*
X35631971Y-74714658D01*
X35632424Y-74714436D01*
X35636110Y-74710751D01*
X35675908Y-74693178D01*
X35718061Y-74672571D01*
X35724803Y-74671588D01*
X35733604Y-74667703D01*
X35800000Y-74660000D01*
X37800000Y-74660000D01*
X37866396Y-74667703D01*
G37*
G36*
X41866396Y-74667703D02*
G01*
X41875196Y-74671588D01*
X41881938Y-74672571D01*
X41924080Y-74693173D01*
X41963890Y-74710751D01*
X41967576Y-74714437D01*
X41968028Y-74714658D01*
X42035341Y-74781971D01*
X42035561Y-74782422D01*
X42039249Y-74786110D01*
X42056831Y-74825929D01*
X42077428Y-74868061D01*
X42078409Y-74874800D01*
X42082297Y-74883604D01*
X42090000Y-74950000D01*
X42090000Y-76250000D01*
X42082297Y-76316396D01*
X42078409Y-76325199D01*
X42077428Y-76331938D01*
X42056835Y-76374059D01*
X42039249Y-76413890D01*
X42035560Y-76417578D01*
X42035341Y-76418028D01*
X41968028Y-76485341D01*
X41967578Y-76485560D01*
X41963890Y-76489249D01*
X41924059Y-76506835D01*
X41881938Y-76527428D01*
X41875199Y-76528409D01*
X41866396Y-76532297D01*
X41800000Y-76540000D01*
X39800000Y-76540000D01*
X39733604Y-76532297D01*
X39724800Y-76528409D01*
X39718061Y-76527428D01*
X39675929Y-76506831D01*
X39636110Y-76489249D01*
X39632422Y-76485561D01*
X39631971Y-76485341D01*
X39564658Y-76418028D01*
X39564437Y-76417576D01*
X39560751Y-76413890D01*
X39543173Y-76374080D01*
X39522571Y-76331938D01*
X39521588Y-76325196D01*
X39517703Y-76316396D01*
X39510000Y-76250000D01*
X39510000Y-74950000D01*
X39517703Y-74883604D01*
X39521588Y-74874803D01*
X39522571Y-74868061D01*
X39543178Y-74825908D01*
X39560751Y-74786110D01*
X39564436Y-74782424D01*
X39564658Y-74781971D01*
X39631971Y-74714658D01*
X39632424Y-74714436D01*
X39636110Y-74710751D01*
X39675908Y-74693178D01*
X39718061Y-74672571D01*
X39724803Y-74671588D01*
X39733604Y-74667703D01*
X39800000Y-74660000D01*
X41800000Y-74660000D01*
X41866396Y-74667703D01*
G37*
G36*
X16365307Y-74138045D02*
G01*
X16378284Y-74146716D01*
X16386955Y-74159693D01*
X16390000Y-74175000D01*
X16390000Y-75875000D01*
X16386955Y-75890307D01*
X16378284Y-75903284D01*
X16365307Y-75911955D01*
X16350000Y-75915000D01*
X14650000Y-75915000D01*
X14634693Y-75911955D01*
X14621716Y-75903284D01*
X14613045Y-75890307D01*
X14610000Y-75875000D01*
X14610000Y-74175000D01*
X14613045Y-74159693D01*
X14621716Y-74146716D01*
X14634693Y-74138045D01*
X14650000Y-74135000D01*
X16350000Y-74135000D01*
X16365307Y-74138045D01*
G37*
G36*
X15758353Y-71633323D02*
G01*
X15919543Y-71700090D01*
X16064610Y-71797021D01*
X16187979Y-71920390D01*
X16284910Y-72065457D01*
X16351677Y-72226647D01*
X16385714Y-72397765D01*
X16385714Y-72572235D01*
X16351677Y-72743353D01*
X16284910Y-72904543D01*
X16187979Y-73049610D01*
X16064610Y-73172979D01*
X15919543Y-73269910D01*
X15758353Y-73336677D01*
X15587235Y-73370714D01*
X15412765Y-73370714D01*
X15241647Y-73336677D01*
X15080457Y-73269910D01*
X14935390Y-73172979D01*
X14812021Y-73049610D01*
X14715090Y-72904543D01*
X14648323Y-72743353D01*
X14614286Y-72572235D01*
X14614286Y-72397765D01*
X14648323Y-72226647D01*
X14715090Y-72065457D01*
X14812021Y-71920390D01*
X14935390Y-71797021D01*
X15080457Y-71700090D01*
X15241647Y-71633323D01*
X15412765Y-71599286D01*
X15587235Y-71599286D01*
X15758353Y-71633323D01*
G37*
G36*
X42618896Y-71167703D02*
G01*
X42627696Y-71171588D01*
X42634438Y-71172571D01*
X42676580Y-71193173D01*
X42716390Y-71210751D01*
X42720076Y-71214437D01*
X42720528Y-71214658D01*
X42787841Y-71281971D01*
X42788061Y-71282422D01*
X42791749Y-71286110D01*
X42809331Y-71325929D01*
X42829928Y-71368061D01*
X42830909Y-71374800D01*
X42834797Y-71383604D01*
X42842500Y-71450000D01*
X42842500Y-72550000D01*
X42834797Y-72616396D01*
X42830909Y-72625199D01*
X42829928Y-72631938D01*
X42809335Y-72674059D01*
X42791749Y-72713890D01*
X42788060Y-72717578D01*
X42787841Y-72718028D01*
X42720528Y-72785341D01*
X42720078Y-72785560D01*
X42716390Y-72789249D01*
X42676559Y-72806835D01*
X42634438Y-72827428D01*
X42627699Y-72828409D01*
X42618896Y-72832297D01*
X42552500Y-72840000D01*
X40452500Y-72840000D01*
X40386104Y-72832297D01*
X40377300Y-72828409D01*
X40370561Y-72827428D01*
X40328429Y-72806831D01*
X40288610Y-72789249D01*
X40284922Y-72785561D01*
X40284471Y-72785341D01*
X40217158Y-72718028D01*
X40216937Y-72717576D01*
X40213251Y-72713890D01*
X40195673Y-72674080D01*
X40175071Y-72631938D01*
X40174088Y-72625196D01*
X40170203Y-72616396D01*
X40162500Y-72550000D01*
X40162500Y-71450000D01*
X40170203Y-71383604D01*
X40174088Y-71374803D01*
X40175071Y-71368061D01*
X40195678Y-71325908D01*
X40213251Y-71286110D01*
X40216936Y-71282424D01*
X40217158Y-71281971D01*
X40284471Y-71214658D01*
X40284924Y-71214436D01*
X40288610Y-71210751D01*
X40328408Y-71193178D01*
X40370561Y-71172571D01*
X40377303Y-71171588D01*
X40386104Y-71167703D01*
X40452500Y-71160000D01*
X42552500Y-71160000D01*
X42618896Y-71167703D01*
G37*
G36*
X24315307Y-68663045D02*
G01*
X24328284Y-68671716D01*
X24336955Y-68684693D01*
X24340000Y-68700000D01*
X24340000Y-72100000D01*
X24336955Y-72115307D01*
X24328284Y-72128284D01*
X24315307Y-72136955D01*
X24300000Y-72140000D01*
X19900000Y-72140000D01*
X19884693Y-72136955D01*
X19871716Y-72128284D01*
X19863045Y-72115307D01*
X19860000Y-72100000D01*
X19860000Y-68700000D01*
X19863045Y-68684693D01*
X19871716Y-68671716D01*
X19884693Y-68663045D01*
X19900000Y-68660000D01*
X24300000Y-68660000D01*
X24315307Y-68663045D01*
G37*
G36*
X34515307Y-68663045D02*
G01*
X34528284Y-68671716D01*
X34536955Y-68684693D01*
X34540000Y-68700000D01*
X34540000Y-72100000D01*
X34536955Y-72115307D01*
X34528284Y-72128284D01*
X34515307Y-72136955D01*
X34500000Y-72140000D01*
X30100000Y-72140000D01*
X30084693Y-72136955D01*
X30071716Y-72128284D01*
X30063045Y-72115307D01*
X30060000Y-72100000D01*
X30060000Y-68700000D01*
X30063045Y-68684693D01*
X30071716Y-68671716D01*
X30084693Y-68663045D01*
X30100000Y-68660000D01*
X34500000Y-68660000D01*
X34515307Y-68663045D01*
G37*
G36*
X42084834Y-68624045D02*
G01*
X42246339Y-68656170D01*
X42398473Y-68719186D01*
X42535390Y-68810671D01*
X42651829Y-68927110D01*
X42743314Y-69064027D01*
X42806330Y-69216161D01*
X42838455Y-69377666D01*
X42838455Y-69542334D01*
X42806330Y-69703839D01*
X42743314Y-69855973D01*
X42651829Y-69992890D01*
X42535390Y-70109329D01*
X42398473Y-70200814D01*
X42246339Y-70263830D01*
X42084834Y-70295955D01*
X42002500Y-70300000D01*
X42001022Y-70300000D01*
X41003978Y-70300000D01*
X41002500Y-70300000D01*
X40920166Y-70295955D01*
X40758661Y-70263830D01*
X40606527Y-70200814D01*
X40469610Y-70109329D01*
X40353171Y-69992890D01*
X40261686Y-69855973D01*
X40198670Y-69703839D01*
X40166545Y-69542334D01*
X40166545Y-69377666D01*
X40198670Y-69216161D01*
X40261686Y-69064027D01*
X40353171Y-68927110D01*
X40469610Y-68810671D01*
X40606527Y-68719186D01*
X40758661Y-68656170D01*
X40920166Y-68624045D01*
X41002500Y-68620000D01*
X42002500Y-68620000D01*
X42084834Y-68624045D01*
G37*
G36*
X42084834Y-66084045D02*
G01*
X42246339Y-66116170D01*
X42398473Y-66179186D01*
X42535390Y-66270671D01*
X42651829Y-66387110D01*
X42743314Y-66524027D01*
X42806330Y-66676161D01*
X42838455Y-66837666D01*
X42838455Y-67002334D01*
X42806330Y-67163839D01*
X42743314Y-67315973D01*
X42651829Y-67452890D01*
X42535390Y-67569329D01*
X42398473Y-67660814D01*
X42246339Y-67723830D01*
X42084834Y-67755955D01*
X42002500Y-67760000D01*
X42001022Y-67760000D01*
X41003978Y-67760000D01*
X41002500Y-67760000D01*
X40920166Y-67755955D01*
X40758661Y-67723830D01*
X40606527Y-67660814D01*
X40469610Y-67569329D01*
X40353171Y-67452890D01*
X40261686Y-67315973D01*
X40198670Y-67163839D01*
X40166545Y-67002334D01*
X40166545Y-66837666D01*
X40198670Y-66676161D01*
X40261686Y-66524027D01*
X40353171Y-66387110D01*
X40469610Y-66270671D01*
X40606527Y-66179186D01*
X40758661Y-66116170D01*
X40920166Y-66084045D01*
X41002500Y-66080000D01*
X42002500Y-66080000D01*
X42084834Y-66084045D01*
G37*
G36*
X42084834Y-63544045D02*
G01*
X42246339Y-63576170D01*
X42398473Y-63639186D01*
X42535390Y-63730671D01*
X42651829Y-63847110D01*
X42743314Y-63984027D01*
X42806330Y-64136161D01*
X42838455Y-64297666D01*
X42838455Y-64462334D01*
X42806330Y-64623839D01*
X42743314Y-64775973D01*
X42651829Y-64912890D01*
X42535390Y-65029329D01*
X42398473Y-65120814D01*
X42246339Y-65183830D01*
X42084834Y-65215955D01*
X42002500Y-65220000D01*
X42001022Y-65220000D01*
X41003978Y-65220000D01*
X41002500Y-65220000D01*
X40920166Y-65215955D01*
X40758661Y-65183830D01*
X40606527Y-65120814D01*
X40469610Y-65029329D01*
X40353171Y-64912890D01*
X40261686Y-64775973D01*
X40198670Y-64623839D01*
X40166545Y-64462334D01*
X40166545Y-64297666D01*
X40198670Y-64136161D01*
X40261686Y-63984027D01*
X40353171Y-63847110D01*
X40469610Y-63730671D01*
X40606527Y-63639186D01*
X40758661Y-63576170D01*
X40920166Y-63544045D01*
X41002500Y-63540000D01*
X42002500Y-63540000D01*
X42084834Y-63544045D01*
G37*
G36*
X33822710Y-61174463D02*
G01*
X33884350Y-61215650D01*
X33925537Y-61277290D01*
X33940000Y-61350000D01*
X33940000Y-62525000D01*
X33925537Y-62597710D01*
X33884350Y-62659350D01*
X33822710Y-62700537D01*
X33750000Y-62715000D01*
X33450000Y-62715000D01*
X33377290Y-62700537D01*
X33315650Y-62659350D01*
X33274463Y-62597710D01*
X33260000Y-62525000D01*
X33260000Y-61350000D01*
X33274463Y-61277290D01*
X33315650Y-61215650D01*
X33377290Y-61174463D01*
X33450000Y-61160000D01*
X33750000Y-61160000D01*
X33822710Y-61174463D01*
G37*
G36*
X22364834Y-61004045D02*
G01*
X22526339Y-61036170D01*
X22678473Y-61099186D01*
X22815390Y-61190671D01*
X22931829Y-61307110D01*
X23023314Y-61444027D01*
X23086330Y-61596161D01*
X23118455Y-61757666D01*
X23118455Y-61922334D01*
X23086330Y-62083839D01*
X23023314Y-62235973D01*
X22931829Y-62372890D01*
X22815390Y-62489329D01*
X22678473Y-62580814D01*
X22526339Y-62643830D01*
X22364834Y-62675955D01*
X22282500Y-62680000D01*
X22281022Y-62680000D01*
X21283978Y-62680000D01*
X21282500Y-62680000D01*
X21200166Y-62675955D01*
X21038661Y-62643830D01*
X20886527Y-62580814D01*
X20749610Y-62489329D01*
X20633171Y-62372890D01*
X20541686Y-62235973D01*
X20478670Y-62083839D01*
X20446545Y-61922334D01*
X20446545Y-61757666D01*
X20478670Y-61596161D01*
X20541686Y-61444027D01*
X20633171Y-61307110D01*
X20749610Y-61190671D01*
X20886527Y-61099186D01*
X21038661Y-61036170D01*
X21200166Y-61004045D01*
X21282500Y-61000000D01*
X22282500Y-61000000D01*
X22364834Y-61004045D01*
G37*
G36*
X42084834Y-61004045D02*
G01*
X42246339Y-61036170D01*
X42398473Y-61099186D01*
X42535390Y-61190671D01*
X42651829Y-61307110D01*
X42743314Y-61444027D01*
X42806330Y-61596161D01*
X42838455Y-61757666D01*
X42838455Y-61922334D01*
X42806330Y-62083839D01*
X42743314Y-62235973D01*
X42651829Y-62372890D01*
X42535390Y-62489329D01*
X42398473Y-62580814D01*
X42246339Y-62643830D01*
X42084834Y-62675955D01*
X42002500Y-62680000D01*
X42001022Y-62680000D01*
X41003978Y-62680000D01*
X41002500Y-62680000D01*
X40920166Y-62675955D01*
X40758661Y-62643830D01*
X40606527Y-62580814D01*
X40469610Y-62489329D01*
X40353171Y-62372890D01*
X40261686Y-62235973D01*
X40198670Y-62083839D01*
X40166545Y-61922334D01*
X40166545Y-61757666D01*
X40198670Y-61596161D01*
X40261686Y-61444027D01*
X40353171Y-61307110D01*
X40469610Y-61190671D01*
X40606527Y-61099186D01*
X40758661Y-61036170D01*
X40920166Y-61004045D01*
X41002500Y-61000000D01*
X42002500Y-61000000D01*
X42084834Y-61004045D01*
G37*
G36*
X38316396Y-60767703D02*
G01*
X38325196Y-60771588D01*
X38331938Y-60772571D01*
X38374080Y-60793173D01*
X38413890Y-60810751D01*
X38417576Y-60814437D01*
X38418028Y-60814658D01*
X38485341Y-60881971D01*
X38485561Y-60882422D01*
X38489249Y-60886110D01*
X38506831Y-60925929D01*
X38527428Y-60968061D01*
X38528409Y-60974800D01*
X38532297Y-60983604D01*
X38540000Y-61050000D01*
X38540000Y-61750000D01*
X38532297Y-61816396D01*
X38528409Y-61825199D01*
X38527428Y-61831938D01*
X38506835Y-61874059D01*
X38489249Y-61913890D01*
X38485560Y-61917578D01*
X38485341Y-61918028D01*
X38418028Y-61985341D01*
X38417578Y-61985560D01*
X38413890Y-61989249D01*
X38374059Y-62006835D01*
X38331938Y-62027428D01*
X38325199Y-62028409D01*
X38316396Y-62032297D01*
X38250000Y-62040000D01*
X37350000Y-62040000D01*
X37283604Y-62032297D01*
X37274800Y-62028409D01*
X37268061Y-62027428D01*
X37225929Y-62006831D01*
X37186110Y-61989249D01*
X37182422Y-61985561D01*
X37181971Y-61985341D01*
X37114658Y-61918028D01*
X37114437Y-61917576D01*
X37110751Y-61913890D01*
X37093173Y-61874080D01*
X37072571Y-61831938D01*
X37071588Y-61825196D01*
X37067703Y-61816396D01*
X37060000Y-61750000D01*
X37060000Y-61050000D01*
X37067703Y-60983604D01*
X37071588Y-60974803D01*
X37072571Y-60968061D01*
X37093178Y-60925908D01*
X37110751Y-60886110D01*
X37114436Y-60882424D01*
X37114658Y-60881971D01*
X37181971Y-60814658D01*
X37182424Y-60814436D01*
X37186110Y-60810751D01*
X37225908Y-60793178D01*
X37268061Y-60772571D01*
X37274803Y-60771588D01*
X37283604Y-60767703D01*
X37350000Y-60760000D01*
X38250000Y-60760000D01*
X38316396Y-60767703D01*
G37*
G36*
X32872710Y-59299463D02*
G01*
X32934350Y-59340650D01*
X32975537Y-59402290D01*
X32990000Y-59475000D01*
X32990000Y-60650000D01*
X32975537Y-60722710D01*
X32934350Y-60784350D01*
X32872710Y-60825537D01*
X32800000Y-60840000D01*
X32500000Y-60840000D01*
X32427290Y-60825537D01*
X32365650Y-60784350D01*
X32324463Y-60722710D01*
X32310000Y-60650000D01*
X32310000Y-59475000D01*
X32324463Y-59402290D01*
X32365650Y-59340650D01*
X32427290Y-59299463D01*
X32500000Y-59285000D01*
X32800000Y-59285000D01*
X32872710Y-59299463D01*
G37*
G36*
X34772710Y-59299463D02*
G01*
X34834350Y-59340650D01*
X34875537Y-59402290D01*
X34890000Y-59475000D01*
X34890000Y-60650000D01*
X34875537Y-60722710D01*
X34834350Y-60784350D01*
X34772710Y-60825537D01*
X34700000Y-60840000D01*
X34400000Y-60840000D01*
X34327290Y-60825537D01*
X34265650Y-60784350D01*
X34224463Y-60722710D01*
X34210000Y-60650000D01*
X34210000Y-59475000D01*
X34224463Y-59402290D01*
X34265650Y-59340650D01*
X34327290Y-59299463D01*
X34400000Y-59285000D01*
X34700000Y-59285000D01*
X34772710Y-59299463D01*
G37*
G36*
X22364834Y-58464045D02*
G01*
X22526339Y-58496170D01*
X22678473Y-58559186D01*
X22815390Y-58650671D01*
X22931829Y-58767110D01*
X23023314Y-58904027D01*
X23086330Y-59056161D01*
X23118455Y-59217666D01*
X23118455Y-59382334D01*
X23086330Y-59543839D01*
X23023314Y-59695973D01*
X22931829Y-59832890D01*
X22815390Y-59949329D01*
X22678473Y-60040814D01*
X22526339Y-60103830D01*
X22364834Y-60135955D01*
X22282500Y-60140000D01*
X22281022Y-60140000D01*
X21283978Y-60140000D01*
X21282500Y-60140000D01*
X21200166Y-60135955D01*
X21038661Y-60103830D01*
X20886527Y-60040814D01*
X20749610Y-59949329D01*
X20633171Y-59832890D01*
X20541686Y-59695973D01*
X20478670Y-59543839D01*
X20446545Y-59382334D01*
X20446545Y-59217666D01*
X20478670Y-59056161D01*
X20541686Y-58904027D01*
X20633171Y-58767110D01*
X20749610Y-58650671D01*
X20886527Y-58559186D01*
X21038661Y-58496170D01*
X21200166Y-58464045D01*
X21282500Y-58460000D01*
X22282500Y-58460000D01*
X22364834Y-58464045D01*
G37*
G36*
X42084834Y-58464045D02*
G01*
X42246339Y-58496170D01*
X42398473Y-58559186D01*
X42535390Y-58650671D01*
X42651829Y-58767110D01*
X42743314Y-58904027D01*
X42806330Y-59056161D01*
X42838455Y-59217666D01*
X42838455Y-59382334D01*
X42806330Y-59543839D01*
X42743314Y-59695973D01*
X42651829Y-59832890D01*
X42535390Y-59949329D01*
X42398473Y-60040814D01*
X42246339Y-60103830D01*
X42084834Y-60135955D01*
X42002500Y-60140000D01*
X42001022Y-60140000D01*
X41003978Y-60140000D01*
X41002500Y-60140000D01*
X40920166Y-60135955D01*
X40758661Y-60103830D01*
X40606527Y-60040814D01*
X40469610Y-59949329D01*
X40353171Y-59832890D01*
X40261686Y-59695973D01*
X40198670Y-59543839D01*
X40166545Y-59382334D01*
X40166545Y-59217666D01*
X40198670Y-59056161D01*
X40261686Y-58904027D01*
X40353171Y-58767110D01*
X40469610Y-58650671D01*
X40606527Y-58559186D01*
X40758661Y-58496170D01*
X40920166Y-58464045D01*
X41002500Y-58460000D01*
X42002500Y-58460000D01*
X42084834Y-58464045D01*
G37*
G36*
X38316396Y-58767703D02*
G01*
X38325196Y-58771588D01*
X38331938Y-58772571D01*
X38374080Y-58793173D01*
X38413890Y-58810751D01*
X38417576Y-58814437D01*
X38418028Y-58814658D01*
X38485341Y-58881971D01*
X38485561Y-58882422D01*
X38489249Y-58886110D01*
X38506831Y-58925929D01*
X38527428Y-58968061D01*
X38528409Y-58974800D01*
X38532297Y-58983604D01*
X38540000Y-59050000D01*
X38540000Y-59750000D01*
X38532297Y-59816396D01*
X38528409Y-59825199D01*
X38527428Y-59831938D01*
X38506835Y-59874059D01*
X38489249Y-59913890D01*
X38485560Y-59917578D01*
X38485341Y-59918028D01*
X38418028Y-59985341D01*
X38417578Y-59985560D01*
X38413890Y-59989249D01*
X38374059Y-60006835D01*
X38331938Y-60027428D01*
X38325199Y-60028409D01*
X38316396Y-60032297D01*
X38250000Y-60040000D01*
X37350000Y-60040000D01*
X37283604Y-60032297D01*
X37274800Y-60028409D01*
X37268061Y-60027428D01*
X37225929Y-60006831D01*
X37186110Y-59989249D01*
X37182422Y-59985561D01*
X37181971Y-59985341D01*
X37114658Y-59918028D01*
X37114437Y-59917576D01*
X37110751Y-59913890D01*
X37093173Y-59874080D01*
X37072571Y-59831938D01*
X37071588Y-59825196D01*
X37067703Y-59816396D01*
X37060000Y-59750000D01*
X37060000Y-59050000D01*
X37067703Y-58983604D01*
X37071588Y-58974803D01*
X37072571Y-58968061D01*
X37093178Y-58925908D01*
X37110751Y-58886110D01*
X37114436Y-58882424D01*
X37114658Y-58881971D01*
X37181971Y-58814658D01*
X37182424Y-58814436D01*
X37186110Y-58810751D01*
X37225908Y-58793178D01*
X37268061Y-58772571D01*
X37274803Y-58771588D01*
X37283604Y-58767703D01*
X37350000Y-58760000D01*
X38250000Y-58760000D01*
X38316396Y-58767703D01*
G37*
G36*
X48208353Y-57518323D02*
G01*
X48369543Y-57585090D01*
X48514610Y-57682021D01*
X48637979Y-57805390D01*
X48734910Y-57950457D01*
X48801677Y-58111647D01*
X48835714Y-58282765D01*
X48835714Y-58457235D01*
X48801677Y-58628353D01*
X48734910Y-58789543D01*
X48637979Y-58934610D01*
X48514610Y-59057979D01*
X48369543Y-59154910D01*
X48208353Y-59221677D01*
X48037235Y-59255714D01*
X47862765Y-59255714D01*
X47691647Y-59221677D01*
X47530457Y-59154910D01*
X47385390Y-59057979D01*
X47262021Y-58934610D01*
X47165090Y-58789543D01*
X47098323Y-58628353D01*
X47064286Y-58457235D01*
X47064286Y-58282765D01*
X47098323Y-58111647D01*
X47165090Y-57950457D01*
X47262021Y-57805390D01*
X47385390Y-57682021D01*
X47530457Y-57585090D01*
X47691647Y-57518323D01*
X47862765Y-57484286D01*
X48037235Y-57484286D01*
X48208353Y-57518323D01*
G37*
G36*
X22364834Y-55924045D02*
G01*
X22526339Y-55956170D01*
X22678473Y-56019186D01*
X22815390Y-56110671D01*
X22931829Y-56227110D01*
X23023314Y-56364027D01*
X23086330Y-56516161D01*
X23118455Y-56677666D01*
X23118455Y-56842334D01*
X23086330Y-57003839D01*
X23023314Y-57155973D01*
X22931829Y-57292890D01*
X22815390Y-57409329D01*
X22678473Y-57500814D01*
X22526339Y-57563830D01*
X22364834Y-57595955D01*
X22282500Y-57600000D01*
X22281022Y-57600000D01*
X21283978Y-57600000D01*
X21282500Y-57600000D01*
X21200166Y-57595955D01*
X21038661Y-57563830D01*
X20886527Y-57500814D01*
X20749610Y-57409329D01*
X20633171Y-57292890D01*
X20541686Y-57155973D01*
X20478670Y-57003839D01*
X20446545Y-56842334D01*
X20446545Y-56677666D01*
X20478670Y-56516161D01*
X20541686Y-56364027D01*
X20633171Y-56227110D01*
X20749610Y-56110671D01*
X20886527Y-56019186D01*
X21038661Y-55956170D01*
X21200166Y-55924045D01*
X21282500Y-55920000D01*
X22282500Y-55920000D01*
X22364834Y-55924045D01*
G37*
G36*
X42084834Y-55924045D02*
G01*
X42246339Y-55956170D01*
X42398473Y-56019186D01*
X42535390Y-56110671D01*
X42651829Y-56227110D01*
X42743314Y-56364027D01*
X42806330Y-56516161D01*
X42838455Y-56677666D01*
X42838455Y-56842334D01*
X42806330Y-57003839D01*
X42743314Y-57155973D01*
X42651829Y-57292890D01*
X42535390Y-57409329D01*
X42398473Y-57500814D01*
X42246339Y-57563830D01*
X42084834Y-57595955D01*
X42002500Y-57600000D01*
X42001022Y-57600000D01*
X41003978Y-57600000D01*
X41002500Y-57600000D01*
X40920166Y-57595955D01*
X40758661Y-57563830D01*
X40606527Y-57500814D01*
X40469610Y-57409329D01*
X40353171Y-57292890D01*
X40261686Y-57155973D01*
X40198670Y-57003839D01*
X40166545Y-56842334D01*
X40166545Y-56677666D01*
X40198670Y-56516161D01*
X40261686Y-56364027D01*
X40353171Y-56227110D01*
X40469610Y-56110671D01*
X40606527Y-56019186D01*
X40758661Y-55956170D01*
X40920166Y-55924045D01*
X41002500Y-55920000D01*
X42002500Y-55920000D01*
X42084834Y-55924045D01*
G37*
G36*
X48208353Y-54978323D02*
G01*
X48369543Y-55045090D01*
X48514610Y-55142021D01*
X48637979Y-55265390D01*
X48734910Y-55410457D01*
X48801677Y-55571647D01*
X48835714Y-55742765D01*
X48835714Y-55917235D01*
X48801677Y-56088353D01*
X48734910Y-56249543D01*
X48637979Y-56394610D01*
X48514610Y-56517979D01*
X48369543Y-56614910D01*
X48208353Y-56681677D01*
X48037235Y-56715714D01*
X47862765Y-56715714D01*
X47691647Y-56681677D01*
X47530457Y-56614910D01*
X47385390Y-56517979D01*
X47262021Y-56394610D01*
X47165090Y-56249543D01*
X47098323Y-56088353D01*
X47064286Y-55917235D01*
X47064286Y-55742765D01*
X47098323Y-55571647D01*
X47165090Y-55410457D01*
X47262021Y-55265390D01*
X47385390Y-55142021D01*
X47530457Y-55045090D01*
X47691647Y-54978323D01*
X47862765Y-54944286D01*
X48037235Y-54944286D01*
X48208353Y-54978323D01*
G37*
G36*
X22364834Y-53384045D02*
G01*
X22526339Y-53416170D01*
X22678473Y-53479186D01*
X22815390Y-53570671D01*
X22931829Y-53687110D01*
X23023314Y-53824027D01*
X23086330Y-53976161D01*
X23118455Y-54137666D01*
X23118455Y-54302334D01*
X23086330Y-54463839D01*
X23023314Y-54615973D01*
X22931829Y-54752890D01*
X22815390Y-54869329D01*
X22678473Y-54960814D01*
X22526339Y-55023830D01*
X22364834Y-55055955D01*
X22282500Y-55060000D01*
X22281022Y-55060000D01*
X21283978Y-55060000D01*
X21282500Y-55060000D01*
X21200166Y-55055955D01*
X21038661Y-55023830D01*
X20886527Y-54960814D01*
X20749610Y-54869329D01*
X20633171Y-54752890D01*
X20541686Y-54615973D01*
X20478670Y-54463839D01*
X20446545Y-54302334D01*
X20446545Y-54137666D01*
X20478670Y-53976161D01*
X20541686Y-53824027D01*
X20633171Y-53687110D01*
X20749610Y-53570671D01*
X20886527Y-53479186D01*
X21038661Y-53416170D01*
X21200166Y-53384045D01*
X21282500Y-53380000D01*
X22282500Y-53380000D01*
X22364834Y-53384045D01*
G37*
G36*
X42084834Y-53384045D02*
G01*
X42246339Y-53416170D01*
X42398473Y-53479186D01*
X42535390Y-53570671D01*
X42651829Y-53687110D01*
X42743314Y-53824027D01*
X42806330Y-53976161D01*
X42838455Y-54137666D01*
X42838455Y-54302334D01*
X42806330Y-54463839D01*
X42743314Y-54615973D01*
X42651829Y-54752890D01*
X42535390Y-54869329D01*
X42398473Y-54960814D01*
X42246339Y-55023830D01*
X42084834Y-55055955D01*
X42002500Y-55060000D01*
X42001022Y-55060000D01*
X41003978Y-55060000D01*
X41002500Y-55060000D01*
X40920166Y-55055955D01*
X40758661Y-55023830D01*
X40606527Y-54960814D01*
X40469610Y-54869329D01*
X40353171Y-54752890D01*
X40261686Y-54615973D01*
X40198670Y-54463839D01*
X40166545Y-54302334D01*
X40166545Y-54137666D01*
X40198670Y-53976161D01*
X40261686Y-53824027D01*
X40353171Y-53687110D01*
X40469610Y-53570671D01*
X40606527Y-53479186D01*
X40758661Y-53416170D01*
X40920166Y-53384045D01*
X41002500Y-53380000D01*
X42002500Y-53380000D01*
X42084834Y-53384045D01*
G37*
G36*
X31916396Y-53567703D02*
G01*
X31925196Y-53571588D01*
X31931938Y-53572571D01*
X31974080Y-53593173D01*
X32013890Y-53610751D01*
X32017576Y-53614437D01*
X32018028Y-53614658D01*
X32085341Y-53681971D01*
X32085561Y-53682422D01*
X32089249Y-53686110D01*
X32106831Y-53725929D01*
X32127428Y-53768061D01*
X32128409Y-53774800D01*
X32132297Y-53783604D01*
X32140000Y-53850000D01*
X32140000Y-54550000D01*
X32132297Y-54616396D01*
X32128409Y-54625199D01*
X32127428Y-54631938D01*
X32106835Y-54674059D01*
X32089249Y-54713890D01*
X32085560Y-54717578D01*
X32085341Y-54718028D01*
X32018028Y-54785341D01*
X32017578Y-54785560D01*
X32013890Y-54789249D01*
X31974059Y-54806835D01*
X31931938Y-54827428D01*
X31925199Y-54828409D01*
X31916396Y-54832297D01*
X31850000Y-54840000D01*
X30950000Y-54840000D01*
X30883604Y-54832297D01*
X30874800Y-54828409D01*
X30868061Y-54827428D01*
X30825929Y-54806831D01*
X30786110Y-54789249D01*
X30782422Y-54785561D01*
X30781971Y-54785341D01*
X30714658Y-54718028D01*
X30714437Y-54717576D01*
X30710751Y-54713890D01*
X30693173Y-54674080D01*
X30672571Y-54631938D01*
X30671588Y-54625196D01*
X30667703Y-54616396D01*
X30660000Y-54550000D01*
X30660000Y-53850000D01*
X30667703Y-53783604D01*
X30671588Y-53774803D01*
X30672571Y-53768061D01*
X30693178Y-53725908D01*
X30710751Y-53686110D01*
X30714436Y-53682424D01*
X30714658Y-53681971D01*
X30781971Y-53614658D01*
X30782424Y-53614436D01*
X30786110Y-53610751D01*
X30825908Y-53593178D01*
X30868061Y-53572571D01*
X30874803Y-53571588D01*
X30883604Y-53567703D01*
X30950000Y-53560000D01*
X31850000Y-53560000D01*
X31916396Y-53567703D01*
G37*
G36*
X35541396Y-53417703D02*
G01*
X35550196Y-53421588D01*
X35556938Y-53422571D01*
X35599080Y-53443173D01*
X35638890Y-53460751D01*
X35642576Y-53464437D01*
X35643028Y-53464658D01*
X35710341Y-53531971D01*
X35710561Y-53532422D01*
X35714249Y-53536110D01*
X35731831Y-53575929D01*
X35752428Y-53618061D01*
X35753409Y-53624800D01*
X35757297Y-53633604D01*
X35765000Y-53700000D01*
X35765000Y-54375000D01*
X35757297Y-54441396D01*
X35753409Y-54450199D01*
X35752428Y-54456938D01*
X35731835Y-54499059D01*
X35714249Y-54538890D01*
X35710560Y-54542578D01*
X35710341Y-54543028D01*
X35643028Y-54610341D01*
X35642578Y-54610560D01*
X35638890Y-54614249D01*
X35599059Y-54631835D01*
X35556938Y-54652428D01*
X35550199Y-54653409D01*
X35541396Y-54657297D01*
X35475000Y-54665000D01*
X34525000Y-54665000D01*
X34458604Y-54657297D01*
X34449800Y-54653409D01*
X34443061Y-54652428D01*
X34400929Y-54631831D01*
X34361110Y-54614249D01*
X34357422Y-54610561D01*
X34356971Y-54610341D01*
X34289658Y-54543028D01*
X34289437Y-54542576D01*
X34285751Y-54538890D01*
X34268173Y-54499080D01*
X34247571Y-54456938D01*
X34246588Y-54450196D01*
X34242703Y-54441396D01*
X34235000Y-54375000D01*
X34235000Y-53700000D01*
X34242703Y-53633604D01*
X34246588Y-53624803D01*
X34247571Y-53618061D01*
X34268178Y-53575908D01*
X34285751Y-53536110D01*
X34289436Y-53532424D01*
X34289658Y-53531971D01*
X34356971Y-53464658D01*
X34357424Y-53464436D01*
X34361110Y-53460751D01*
X34400908Y-53443178D01*
X34443061Y-53422571D01*
X34449803Y-53421588D01*
X34458604Y-53417703D01*
X34525000Y-53410000D01*
X35475000Y-53410000D01*
X35541396Y-53417703D01*
G37*
G36*
X38316396Y-53367703D02*
G01*
X38325196Y-53371588D01*
X38331938Y-53372571D01*
X38374080Y-53393173D01*
X38413890Y-53410751D01*
X38417576Y-53414437D01*
X38418028Y-53414658D01*
X38485341Y-53481971D01*
X38485561Y-53482422D01*
X38489249Y-53486110D01*
X38506831Y-53525929D01*
X38527428Y-53568061D01*
X38528409Y-53574800D01*
X38532297Y-53583604D01*
X38540000Y-53650000D01*
X38540000Y-54350000D01*
X38532297Y-54416396D01*
X38528409Y-54425199D01*
X38527428Y-54431938D01*
X38506835Y-54474059D01*
X38489249Y-54513890D01*
X38485560Y-54517578D01*
X38485341Y-54518028D01*
X38418028Y-54585341D01*
X38417578Y-54585560D01*
X38413890Y-54589249D01*
X38374059Y-54606835D01*
X38331938Y-54627428D01*
X38325199Y-54628409D01*
X38316396Y-54632297D01*
X38250000Y-54640000D01*
X37350000Y-54640000D01*
X37283604Y-54632297D01*
X37274800Y-54628409D01*
X37268061Y-54627428D01*
X37225929Y-54606831D01*
X37186110Y-54589249D01*
X37182422Y-54585561D01*
X37181971Y-54585341D01*
X37114658Y-54518028D01*
X37114437Y-54517576D01*
X37110751Y-54513890D01*
X37093173Y-54474080D01*
X37072571Y-54431938D01*
X37071588Y-54425196D01*
X37067703Y-54416396D01*
X37060000Y-54350000D01*
X37060000Y-53650000D01*
X37067703Y-53583604D01*
X37071588Y-53574803D01*
X37072571Y-53568061D01*
X37093178Y-53525908D01*
X37110751Y-53486110D01*
X37114436Y-53482424D01*
X37114658Y-53481971D01*
X37181971Y-53414658D01*
X37182424Y-53414436D01*
X37186110Y-53410751D01*
X37225908Y-53393178D01*
X37268061Y-53372571D01*
X37274803Y-53371588D01*
X37283604Y-53367703D01*
X37350000Y-53360000D01*
X38250000Y-53360000D01*
X38316396Y-53367703D01*
G37*
G36*
X48208353Y-52438323D02*
G01*
X48369543Y-52505090D01*
X48514610Y-52602021D01*
X48637979Y-52725390D01*
X48734910Y-52870457D01*
X48801677Y-53031647D01*
X48835714Y-53202765D01*
X48835714Y-53377235D01*
X48801677Y-53548353D01*
X48734910Y-53709543D01*
X48637979Y-53854610D01*
X48514610Y-53977979D01*
X48369543Y-54074910D01*
X48208353Y-54141677D01*
X48037235Y-54175714D01*
X47862765Y-54175714D01*
X47691647Y-54141677D01*
X47530457Y-54074910D01*
X47385390Y-53977979D01*
X47262021Y-53854610D01*
X47165090Y-53709543D01*
X47098323Y-53548353D01*
X47064286Y-53377235D01*
X47064286Y-53202765D01*
X47098323Y-53031647D01*
X47165090Y-52870457D01*
X47262021Y-52725390D01*
X47385390Y-52602021D01*
X47530457Y-52505090D01*
X47691647Y-52438323D01*
X47862765Y-52404286D01*
X48037235Y-52404286D01*
X48208353Y-52438323D01*
G37*
G36*
X31916396Y-51567703D02*
G01*
X31925196Y-51571588D01*
X31931938Y-51572571D01*
X31974080Y-51593173D01*
X32013890Y-51610751D01*
X32017576Y-51614437D01*
X32018028Y-51614658D01*
X32085341Y-51681971D01*
X32085561Y-51682422D01*
X32089249Y-51686110D01*
X32106831Y-51725929D01*
X32127428Y-51768061D01*
X32128409Y-51774800D01*
X32132297Y-51783604D01*
X32140000Y-51850000D01*
X32140000Y-52550000D01*
X32132297Y-52616396D01*
X32128409Y-52625199D01*
X32127428Y-52631938D01*
X32106835Y-52674059D01*
X32089249Y-52713890D01*
X32085560Y-52717578D01*
X32085341Y-52718028D01*
X32018028Y-52785341D01*
X32017578Y-52785560D01*
X32013890Y-52789249D01*
X31974059Y-52806835D01*
X31931938Y-52827428D01*
X31925199Y-52828409D01*
X31916396Y-52832297D01*
X31850000Y-52840000D01*
X30950000Y-52840000D01*
X30883604Y-52832297D01*
X30874800Y-52828409D01*
X30868061Y-52827428D01*
X30825929Y-52806831D01*
X30786110Y-52789249D01*
X30782422Y-52785561D01*
X30781971Y-52785341D01*
X30714658Y-52718028D01*
X30714437Y-52717576D01*
X30710751Y-52713890D01*
X30693173Y-52674080D01*
X30672571Y-52631938D01*
X30671588Y-52625196D01*
X30667703Y-52616396D01*
X30660000Y-52550000D01*
X30660000Y-51850000D01*
X30667703Y-51783604D01*
X30671588Y-51774803D01*
X30672571Y-51768061D01*
X30693178Y-51725908D01*
X30710751Y-51686110D01*
X30714436Y-51682424D01*
X30714658Y-51681971D01*
X30781971Y-51614658D01*
X30782424Y-51614436D01*
X30786110Y-51610751D01*
X30825908Y-51593178D01*
X30868061Y-51572571D01*
X30874803Y-51571588D01*
X30883604Y-51567703D01*
X30950000Y-51560000D01*
X31850000Y-51560000D01*
X31916396Y-51567703D01*
G37*
G36*
X38316396Y-51367703D02*
G01*
X38325196Y-51371588D01*
X38331938Y-51372571D01*
X38374080Y-51393173D01*
X38413890Y-51410751D01*
X38417576Y-51414437D01*
X38418028Y-51414658D01*
X38485341Y-51481971D01*
X38485561Y-51482422D01*
X38489249Y-51486110D01*
X38506831Y-51525929D01*
X38527428Y-51568061D01*
X38528409Y-51574800D01*
X38532297Y-51583604D01*
X38540000Y-51650000D01*
X38540000Y-52350000D01*
X38532297Y-52416396D01*
X38528409Y-52425199D01*
X38527428Y-52431938D01*
X38506835Y-52474059D01*
X38489249Y-52513890D01*
X38485560Y-52517578D01*
X38485341Y-52518028D01*
X38418028Y-52585341D01*
X38417578Y-52585560D01*
X38413890Y-52589249D01*
X38374059Y-52606835D01*
X38331938Y-52627428D01*
X38325199Y-52628409D01*
X38316396Y-52632297D01*
X38250000Y-52640000D01*
X37350000Y-52640000D01*
X37283604Y-52632297D01*
X37274800Y-52628409D01*
X37268061Y-52627428D01*
X37225929Y-52606831D01*
X37186110Y-52589249D01*
X37182422Y-52585561D01*
X37181971Y-52585341D01*
X37114658Y-52518028D01*
X37114437Y-52517576D01*
X37110751Y-52513890D01*
X37093173Y-52474080D01*
X37072571Y-52431938D01*
X37071588Y-52425196D01*
X37067703Y-52416396D01*
X37060000Y-52350000D01*
X37060000Y-51650000D01*
X37067703Y-51583604D01*
X37071588Y-51574803D01*
X37072571Y-51568061D01*
X37093178Y-51525908D01*
X37110751Y-51486110D01*
X37114436Y-51482424D01*
X37114658Y-51481971D01*
X37181971Y-51414658D01*
X37182424Y-51414436D01*
X37186110Y-51410751D01*
X37225908Y-51393178D01*
X37268061Y-51372571D01*
X37274803Y-51371588D01*
X37283604Y-51367703D01*
X37350000Y-51360000D01*
X38250000Y-51360000D01*
X38316396Y-51367703D01*
G37*
G36*
X35541396Y-51342703D02*
G01*
X35550196Y-51346588D01*
X35556938Y-51347571D01*
X35599080Y-51368173D01*
X35638890Y-51385751D01*
X35642576Y-51389437D01*
X35643028Y-51389658D01*
X35710341Y-51456971D01*
X35710561Y-51457422D01*
X35714249Y-51461110D01*
X35731831Y-51500929D01*
X35752428Y-51543061D01*
X35753409Y-51549800D01*
X35757297Y-51558604D01*
X35765000Y-51625000D01*
X35765000Y-52300000D01*
X35757297Y-52366396D01*
X35753409Y-52375199D01*
X35752428Y-52381938D01*
X35731835Y-52424059D01*
X35714249Y-52463890D01*
X35710560Y-52467578D01*
X35710341Y-52468028D01*
X35643028Y-52535341D01*
X35642578Y-52535560D01*
X35638890Y-52539249D01*
X35599059Y-52556835D01*
X35556938Y-52577428D01*
X35550199Y-52578409D01*
X35541396Y-52582297D01*
X35475000Y-52590000D01*
X34525000Y-52590000D01*
X34458604Y-52582297D01*
X34449800Y-52578409D01*
X34443061Y-52577428D01*
X34400929Y-52556831D01*
X34361110Y-52539249D01*
X34357422Y-52535561D01*
X34356971Y-52535341D01*
X34289658Y-52468028D01*
X34289437Y-52467576D01*
X34285751Y-52463890D01*
X34268173Y-52424080D01*
X34247571Y-52381938D01*
X34246588Y-52375196D01*
X34242703Y-52366396D01*
X34235000Y-52300000D01*
X34235000Y-51625000D01*
X34242703Y-51558604D01*
X34246588Y-51549803D01*
X34247571Y-51543061D01*
X34268178Y-51500908D01*
X34285751Y-51461110D01*
X34289436Y-51457424D01*
X34289658Y-51456971D01*
X34356971Y-51389658D01*
X34357424Y-51389436D01*
X34361110Y-51385751D01*
X34400908Y-51368178D01*
X34443061Y-51347571D01*
X34449803Y-51346588D01*
X34458604Y-51342703D01*
X34525000Y-51335000D01*
X35475000Y-51335000D01*
X35541396Y-51342703D01*
G37*
G36*
X22364834Y-50844045D02*
G01*
X22526339Y-50876170D01*
X22678473Y-50939186D01*
X22815390Y-51030671D01*
X22931829Y-51147110D01*
X23023314Y-51284027D01*
X23086330Y-51436161D01*
X23118455Y-51597666D01*
X23118455Y-51762334D01*
X23086330Y-51923839D01*
X23023314Y-52075973D01*
X22931829Y-52212890D01*
X22815390Y-52329329D01*
X22678473Y-52420814D01*
X22526339Y-52483830D01*
X22364834Y-52515955D01*
X22282500Y-52520000D01*
X22281022Y-52520000D01*
X21283978Y-52520000D01*
X21282500Y-52520000D01*
X21200166Y-52515955D01*
X21038661Y-52483830D01*
X20886527Y-52420814D01*
X20749610Y-52329329D01*
X20633171Y-52212890D01*
X20541686Y-52075973D01*
X20478670Y-51923839D01*
X20446545Y-51762334D01*
X20446545Y-51597666D01*
X20478670Y-51436161D01*
X20541686Y-51284027D01*
X20633171Y-51147110D01*
X20749610Y-51030671D01*
X20886527Y-50939186D01*
X21038661Y-50876170D01*
X21200166Y-50844045D01*
X21282500Y-50840000D01*
X22282500Y-50840000D01*
X22364834Y-50844045D01*
G37*
G36*
X42084834Y-50844045D02*
G01*
X42246339Y-50876170D01*
X42398473Y-50939186D01*
X42535390Y-51030671D01*
X42651829Y-51147110D01*
X42743314Y-51284027D01*
X42806330Y-51436161D01*
X42838455Y-51597666D01*
X42838455Y-51762334D01*
X42806330Y-51923839D01*
X42743314Y-52075973D01*
X42651829Y-52212890D01*
X42535390Y-52329329D01*
X42398473Y-52420814D01*
X42246339Y-52483830D01*
X42084834Y-52515955D01*
X42002500Y-52520000D01*
X42001022Y-52520000D01*
X41003978Y-52520000D01*
X41002500Y-52520000D01*
X40920166Y-52515955D01*
X40758661Y-52483830D01*
X40606527Y-52420814D01*
X40469610Y-52329329D01*
X40353171Y-52212890D01*
X40261686Y-52075973D01*
X40198670Y-51923839D01*
X40166545Y-51762334D01*
X40166545Y-51597666D01*
X40198670Y-51436161D01*
X40261686Y-51284027D01*
X40353171Y-51147110D01*
X40469610Y-51030671D01*
X40606527Y-50939186D01*
X40758661Y-50876170D01*
X40920166Y-50844045D01*
X41002500Y-50840000D01*
X42002500Y-50840000D01*
X42084834Y-50844045D01*
G37*
G36*
X48208353Y-49898323D02*
G01*
X48369543Y-49965090D01*
X48514610Y-50062021D01*
X48637979Y-50185390D01*
X48734910Y-50330457D01*
X48801677Y-50491647D01*
X48835714Y-50662765D01*
X48835714Y-50837235D01*
X48801677Y-51008353D01*
X48734910Y-51169543D01*
X48637979Y-51314610D01*
X48514610Y-51437979D01*
X48369543Y-51534910D01*
X48208353Y-51601677D01*
X48037235Y-51635714D01*
X47862765Y-51635714D01*
X47691647Y-51601677D01*
X47530457Y-51534910D01*
X47385390Y-51437979D01*
X47262021Y-51314610D01*
X47165090Y-51169543D01*
X47098323Y-51008353D01*
X47064286Y-50837235D01*
X47064286Y-50662765D01*
X47098323Y-50491647D01*
X47165090Y-50330457D01*
X47262021Y-50185390D01*
X47385390Y-50062021D01*
X47530457Y-49965090D01*
X47691647Y-49898323D01*
X47862765Y-49864286D01*
X48037235Y-49864286D01*
X48208353Y-49898323D01*
G37*
G36*
X22364834Y-48304045D02*
G01*
X22526339Y-48336170D01*
X22678473Y-48399186D01*
X22815390Y-48490671D01*
X22931829Y-48607110D01*
X23023314Y-48744027D01*
X23086330Y-48896161D01*
X23118455Y-49057666D01*
X23118455Y-49222334D01*
X23086330Y-49383839D01*
X23023314Y-49535973D01*
X22931829Y-49672890D01*
X22815390Y-49789329D01*
X22678473Y-49880814D01*
X22526339Y-49943830D01*
X22364834Y-49975955D01*
X22282500Y-49980000D01*
X22281022Y-49980000D01*
X21283978Y-49980000D01*
X21282500Y-49980000D01*
X21200166Y-49975955D01*
X21038661Y-49943830D01*
X20886527Y-49880814D01*
X20749610Y-49789329D01*
X20633171Y-49672890D01*
X20541686Y-49535973D01*
X20478670Y-49383839D01*
X20446545Y-49222334D01*
X20446545Y-49057666D01*
X20478670Y-48896161D01*
X20541686Y-48744027D01*
X20633171Y-48607110D01*
X20749610Y-48490671D01*
X20886527Y-48399186D01*
X21038661Y-48336170D01*
X21200166Y-48304045D01*
X21282500Y-48300000D01*
X22282500Y-48300000D01*
X22364834Y-48304045D01*
G37*
G36*
X42084834Y-48304045D02*
G01*
X42246339Y-48336170D01*
X42398473Y-48399186D01*
X42535390Y-48490671D01*
X42651829Y-48607110D01*
X42743314Y-48744027D01*
X42806330Y-48896161D01*
X42838455Y-49057666D01*
X42838455Y-49222334D01*
X42806330Y-49383839D01*
X42743314Y-49535973D01*
X42651829Y-49672890D01*
X42535390Y-49789329D01*
X42398473Y-49880814D01*
X42246339Y-49943830D01*
X42084834Y-49975955D01*
X42002500Y-49980000D01*
X42001022Y-49980000D01*
X41003978Y-49980000D01*
X41002500Y-49980000D01*
X40920166Y-49975955D01*
X40758661Y-49943830D01*
X40606527Y-49880814D01*
X40469610Y-49789329D01*
X40353171Y-49672890D01*
X40261686Y-49535973D01*
X40198670Y-49383839D01*
X40166545Y-49222334D01*
X40166545Y-49057666D01*
X40198670Y-48896161D01*
X40261686Y-48744027D01*
X40353171Y-48607110D01*
X40469610Y-48490671D01*
X40606527Y-48399186D01*
X40758661Y-48336170D01*
X40920166Y-48304045D01*
X41002500Y-48300000D01*
X42002500Y-48300000D01*
X42084834Y-48304045D01*
G37*
G36*
X48208353Y-47358323D02*
G01*
X48369543Y-47425090D01*
X48514610Y-47522021D01*
X48637979Y-47645390D01*
X48734910Y-47790457D01*
X48801677Y-47951647D01*
X48835714Y-48122765D01*
X48835714Y-48297235D01*
X48801677Y-48468353D01*
X48734910Y-48629543D01*
X48637979Y-48774610D01*
X48514610Y-48897979D01*
X48369543Y-48994910D01*
X48208353Y-49061677D01*
X48037235Y-49095714D01*
X47862765Y-49095714D01*
X47691647Y-49061677D01*
X47530457Y-48994910D01*
X47385390Y-48897979D01*
X47262021Y-48774610D01*
X47165090Y-48629543D01*
X47098323Y-48468353D01*
X47064286Y-48297235D01*
X47064286Y-48122765D01*
X47098323Y-47951647D01*
X47165090Y-47790457D01*
X47262021Y-47645390D01*
X47385390Y-47522021D01*
X47530457Y-47425090D01*
X47691647Y-47358323D01*
X47862765Y-47324286D01*
X48037235Y-47324286D01*
X48208353Y-47358323D01*
G37*
G36*
X22364834Y-45764045D02*
G01*
X22526339Y-45796170D01*
X22678473Y-45859186D01*
X22815390Y-45950671D01*
X22931829Y-46067110D01*
X23023314Y-46204027D01*
X23086330Y-46356161D01*
X23118455Y-46517666D01*
X23118455Y-46682334D01*
X23086330Y-46843839D01*
X23023314Y-46995973D01*
X22931829Y-47132890D01*
X22815390Y-47249329D01*
X22678473Y-47340814D01*
X22526339Y-47403830D01*
X22364834Y-47435955D01*
X22282500Y-47440000D01*
X22281022Y-47440000D01*
X21283978Y-47440000D01*
X21282500Y-47440000D01*
X21200166Y-47435955D01*
X21038661Y-47403830D01*
X20886527Y-47340814D01*
X20749610Y-47249329D01*
X20633171Y-47132890D01*
X20541686Y-46995973D01*
X20478670Y-46843839D01*
X20446545Y-46682334D01*
X20446545Y-46517666D01*
X20478670Y-46356161D01*
X20541686Y-46204027D01*
X20633171Y-46067110D01*
X20749610Y-45950671D01*
X20886527Y-45859186D01*
X21038661Y-45796170D01*
X21200166Y-45764045D01*
X21282500Y-45760000D01*
X22282500Y-45760000D01*
X22364834Y-45764045D01*
G37*
G36*
X42084834Y-45764045D02*
G01*
X42246339Y-45796170D01*
X42398473Y-45859186D01*
X42535390Y-45950671D01*
X42651829Y-46067110D01*
X42743314Y-46204027D01*
X42806330Y-46356161D01*
X42838455Y-46517666D01*
X42838455Y-46682334D01*
X42806330Y-46843839D01*
X42743314Y-46995973D01*
X42651829Y-47132890D01*
X42535390Y-47249329D01*
X42398473Y-47340814D01*
X42246339Y-47403830D01*
X42084834Y-47435955D01*
X42002500Y-47440000D01*
X42001022Y-47440000D01*
X41003978Y-47440000D01*
X41002500Y-47440000D01*
X40920166Y-47435955D01*
X40758661Y-47403830D01*
X40606527Y-47340814D01*
X40469610Y-47249329D01*
X40353171Y-47132890D01*
X40261686Y-46995973D01*
X40198670Y-46843839D01*
X40166545Y-46682334D01*
X40166545Y-46517666D01*
X40198670Y-46356161D01*
X40261686Y-46204027D01*
X40353171Y-46067110D01*
X40469610Y-45950671D01*
X40606527Y-45859186D01*
X40758661Y-45796170D01*
X40920166Y-45764045D01*
X41002500Y-45760000D01*
X42002500Y-45760000D01*
X42084834Y-45764045D01*
G37*
G36*
X48208353Y-44818323D02*
G01*
X48369543Y-44885090D01*
X48514610Y-44982021D01*
X48637979Y-45105390D01*
X48734910Y-45250457D01*
X48801677Y-45411647D01*
X48835714Y-45582765D01*
X48835714Y-45757235D01*
X48801677Y-45928353D01*
X48734910Y-46089543D01*
X48637979Y-46234610D01*
X48514610Y-46357979D01*
X48369543Y-46454910D01*
X48208353Y-46521677D01*
X48037235Y-46555714D01*
X47862765Y-46555714D01*
X47691647Y-46521677D01*
X47530457Y-46454910D01*
X47385390Y-46357979D01*
X47262021Y-46234610D01*
X47165090Y-46089543D01*
X47098323Y-45928353D01*
X47064286Y-45757235D01*
X47064286Y-45582765D01*
X47098323Y-45411647D01*
X47165090Y-45250457D01*
X47262021Y-45105390D01*
X47385390Y-44982021D01*
X47530457Y-44885090D01*
X47691647Y-44818323D01*
X47862765Y-44784286D01*
X48037235Y-44784286D01*
X48208353Y-44818323D01*
G37*
G36*
X22364834Y-43224045D02*
G01*
X22526339Y-43256170D01*
X22678473Y-43319186D01*
X22815390Y-43410671D01*
X22931829Y-43527110D01*
X23023314Y-43664027D01*
X23086330Y-43816161D01*
X23118455Y-43977666D01*
X23118455Y-44142334D01*
X23086330Y-44303839D01*
X23023314Y-44455973D01*
X22931829Y-44592890D01*
X22815390Y-44709329D01*
X22678473Y-44800814D01*
X22526339Y-44863830D01*
X22364834Y-44895955D01*
X22282500Y-44900000D01*
X22281022Y-44900000D01*
X21283978Y-44900000D01*
X21282500Y-44900000D01*
X21200166Y-44895955D01*
X21038661Y-44863830D01*
X20886527Y-44800814D01*
X20749610Y-44709329D01*
X20633171Y-44592890D01*
X20541686Y-44455973D01*
X20478670Y-44303839D01*
X20446545Y-44142334D01*
X20446545Y-43977666D01*
X20478670Y-43816161D01*
X20541686Y-43664027D01*
X20633171Y-43527110D01*
X20749610Y-43410671D01*
X20886527Y-43319186D01*
X21038661Y-43256170D01*
X21200166Y-43224045D01*
X21282500Y-43220000D01*
X22282500Y-43220000D01*
X22364834Y-43224045D01*
G37*
G36*
X42084834Y-43224045D02*
G01*
X42246339Y-43256170D01*
X42398473Y-43319186D01*
X42535390Y-43410671D01*
X42651829Y-43527110D01*
X42743314Y-43664027D01*
X42806330Y-43816161D01*
X42838455Y-43977666D01*
X42838455Y-44142334D01*
X42806330Y-44303839D01*
X42743314Y-44455973D01*
X42651829Y-44592890D01*
X42535390Y-44709329D01*
X42398473Y-44800814D01*
X42246339Y-44863830D01*
X42084834Y-44895955D01*
X42002500Y-44900000D01*
X42001022Y-44900000D01*
X41003978Y-44900000D01*
X41002500Y-44900000D01*
X40920166Y-44895955D01*
X40758661Y-44863830D01*
X40606527Y-44800814D01*
X40469610Y-44709329D01*
X40353171Y-44592890D01*
X40261686Y-44455973D01*
X40198670Y-44303839D01*
X40166545Y-44142334D01*
X40166545Y-43977666D01*
X40198670Y-43816161D01*
X40261686Y-43664027D01*
X40353171Y-43527110D01*
X40469610Y-43410671D01*
X40606527Y-43319186D01*
X40758661Y-43256170D01*
X40920166Y-43224045D01*
X41002500Y-43220000D01*
X42002500Y-43220000D01*
X42084834Y-43224045D01*
G37*
G36*
X48470421Y-42240738D02*
G01*
X48533260Y-42246630D01*
X48549240Y-42252222D01*
X48572254Y-42255575D01*
X48606080Y-42272111D01*
X48640097Y-42284015D01*
X48659065Y-42298014D01*
X48683052Y-42309741D01*
X48705867Y-42332556D01*
X48729788Y-42350211D01*
X48747442Y-42374131D01*
X48770259Y-42396948D01*
X48781985Y-42420935D01*
X48795984Y-42439902D01*
X48807886Y-42473916D01*
X48824425Y-42507746D01*
X48827778Y-42530761D01*
X48833369Y-42546738D01*
X48839258Y-42609559D01*
X48840000Y-42614646D01*
X48840000Y-43645354D01*
X48839258Y-43650440D01*
X48833369Y-43713260D01*
X48827778Y-43729235D01*
X48824425Y-43752254D01*
X48807884Y-43786087D01*
X48795984Y-43820097D01*
X48781987Y-43839061D01*
X48770259Y-43863052D01*
X48747439Y-43885871D01*
X48729788Y-43909788D01*
X48705871Y-43927439D01*
X48683052Y-43950259D01*
X48659061Y-43961987D01*
X48640097Y-43975984D01*
X48606086Y-43987885D01*
X48572254Y-44004425D01*
X48549237Y-44007778D01*
X48533261Y-44013369D01*
X48470441Y-44019258D01*
X48465354Y-44020000D01*
X47434646Y-44020000D01*
X47429561Y-44019259D01*
X47366739Y-44013369D01*
X47350762Y-44007778D01*
X47327746Y-44004425D01*
X47293915Y-43987886D01*
X47259902Y-43975984D01*
X47240935Y-43961985D01*
X47216948Y-43950259D01*
X47194131Y-43927442D01*
X47170211Y-43909788D01*
X47152556Y-43885867D01*
X47129741Y-43863052D01*
X47118014Y-43839065D01*
X47104015Y-43820097D01*
X47092111Y-43786079D01*
X47075575Y-43752254D01*
X47072222Y-43729242D01*
X47066630Y-43713261D01*
X47060738Y-43650422D01*
X47060000Y-43645354D01*
X47060000Y-42614646D01*
X47060738Y-42609580D01*
X47066630Y-42546739D01*
X47072222Y-42530757D01*
X47075575Y-42507746D01*
X47092110Y-42473922D01*
X47104015Y-42439902D01*
X47118016Y-42420931D01*
X47129741Y-42396948D01*
X47152554Y-42374134D01*
X47170211Y-42350211D01*
X47194134Y-42332554D01*
X47216948Y-42309741D01*
X47240931Y-42298016D01*
X47259902Y-42284015D01*
X47293923Y-42272109D01*
X47327746Y-42255575D01*
X47350756Y-42252222D01*
X47366738Y-42246630D01*
X47429579Y-42240738D01*
X47434646Y-42240000D01*
X48465354Y-42240000D01*
X48470421Y-42240738D01*
G37*
G36*
X22364834Y-40684045D02*
G01*
X22526339Y-40716170D01*
X22678473Y-40779186D01*
X22815390Y-40870671D01*
X22931829Y-40987110D01*
X23023314Y-41124027D01*
X23086330Y-41276161D01*
X23118455Y-41437666D01*
X23118455Y-41602334D01*
X23086330Y-41763839D01*
X23023314Y-41915973D01*
X22931829Y-42052890D01*
X22815390Y-42169329D01*
X22678473Y-42260814D01*
X22526339Y-42323830D01*
X22364834Y-42355955D01*
X22282500Y-42360000D01*
X22281022Y-42360000D01*
X21283978Y-42360000D01*
X21282500Y-42360000D01*
X21200166Y-42355955D01*
X21038661Y-42323830D01*
X20886527Y-42260814D01*
X20749610Y-42169329D01*
X20633171Y-42052890D01*
X20541686Y-41915973D01*
X20478670Y-41763839D01*
X20446545Y-41602334D01*
X20446545Y-41437666D01*
X20478670Y-41276161D01*
X20541686Y-41124027D01*
X20633171Y-40987110D01*
X20749610Y-40870671D01*
X20886527Y-40779186D01*
X21038661Y-40716170D01*
X21200166Y-40684045D01*
X21282500Y-40680000D01*
X22282500Y-40680000D01*
X22364834Y-40684045D01*
G37*
G36*
X42084834Y-40684045D02*
G01*
X42246339Y-40716170D01*
X42398473Y-40779186D01*
X42535390Y-40870671D01*
X42651829Y-40987110D01*
X42743314Y-41124027D01*
X42806330Y-41276161D01*
X42838455Y-41437666D01*
X42838455Y-41602334D01*
X42806330Y-41763839D01*
X42743314Y-41915973D01*
X42651829Y-42052890D01*
X42535390Y-42169329D01*
X42398473Y-42260814D01*
X42246339Y-42323830D01*
X42084834Y-42355955D01*
X42002500Y-42360000D01*
X42001022Y-42360000D01*
X41003978Y-42360000D01*
X41002500Y-42360000D01*
X40920166Y-42355955D01*
X40758661Y-42323830D01*
X40606527Y-42260814D01*
X40469610Y-42169329D01*
X40353171Y-42052890D01*
X40261686Y-41915973D01*
X40198670Y-41763839D01*
X40166545Y-41602334D01*
X40166545Y-41437666D01*
X40198670Y-41276161D01*
X40261686Y-41124027D01*
X40353171Y-40987110D01*
X40469610Y-40870671D01*
X40606527Y-40779186D01*
X40758661Y-40716170D01*
X40920166Y-40684045D01*
X41002500Y-40680000D01*
X42002500Y-40680000D01*
X42084834Y-40684045D01*
G37*
G36*
X22364834Y-38144045D02*
G01*
X22526339Y-38176170D01*
X22678473Y-38239186D01*
X22815390Y-38330671D01*
X22931829Y-38447110D01*
X23023314Y-38584027D01*
X23086330Y-38736161D01*
X23118455Y-38897666D01*
X23118455Y-39062334D01*
X23086330Y-39223839D01*
X23023314Y-39375973D01*
X22931829Y-39512890D01*
X22815390Y-39629329D01*
X22678473Y-39720814D01*
X22526339Y-39783830D01*
X22364834Y-39815955D01*
X22282500Y-39820000D01*
X22281022Y-39820000D01*
X21283978Y-39820000D01*
X21282500Y-39820000D01*
X21200166Y-39815955D01*
X21038661Y-39783830D01*
X20886527Y-39720814D01*
X20749610Y-39629329D01*
X20633171Y-39512890D01*
X20541686Y-39375973D01*
X20478670Y-39223839D01*
X20446545Y-39062334D01*
X20446545Y-38897666D01*
X20478670Y-38736161D01*
X20541686Y-38584027D01*
X20633171Y-38447110D01*
X20749610Y-38330671D01*
X20886527Y-38239186D01*
X21038661Y-38176170D01*
X21200166Y-38144045D01*
X21282500Y-38140000D01*
X22282500Y-38140000D01*
X22364834Y-38144045D01*
G37*
G36*
X42084834Y-38144045D02*
G01*
X42246339Y-38176170D01*
X42398473Y-38239186D01*
X42535390Y-38330671D01*
X42651829Y-38447110D01*
X42743314Y-38584027D01*
X42806330Y-38736161D01*
X42838455Y-38897666D01*
X42838455Y-39062334D01*
X42806330Y-39223839D01*
X42743314Y-39375973D01*
X42651829Y-39512890D01*
X42535390Y-39629329D01*
X42398473Y-39720814D01*
X42246339Y-39783830D01*
X42084834Y-39815955D01*
X42002500Y-39820000D01*
X42001022Y-39820000D01*
X41003978Y-39820000D01*
X41002500Y-39820000D01*
X40920166Y-39815955D01*
X40758661Y-39783830D01*
X40606527Y-39720814D01*
X40469610Y-39629329D01*
X40353171Y-39512890D01*
X40261686Y-39375973D01*
X40198670Y-39223839D01*
X40166545Y-39062334D01*
X40166545Y-38897666D01*
X40198670Y-38736161D01*
X40261686Y-38584027D01*
X40353171Y-38447110D01*
X40469610Y-38330671D01*
X40606527Y-38239186D01*
X40758661Y-38176170D01*
X40920166Y-38144045D01*
X41002500Y-38140000D01*
X42002500Y-38140000D01*
X42084834Y-38144045D01*
G37*
G36*
X17349212Y-34244394D02*
G01*
X17575377Y-34304995D01*
X17791697Y-34394598D01*
X17994471Y-34511669D01*
X18180229Y-34654207D01*
X18345793Y-34819771D01*
X18488331Y-35005529D01*
X18605402Y-35208303D01*
X18695005Y-35424623D01*
X18755606Y-35650788D01*
X18786167Y-35882928D01*
X18786167Y-36117072D01*
X18755606Y-36349212D01*
X18695005Y-36575377D01*
X18605402Y-36791697D01*
X18488331Y-36994471D01*
X18345793Y-37180229D01*
X18180229Y-37345793D01*
X17994471Y-37488331D01*
X17791697Y-37605402D01*
X17575377Y-37695005D01*
X17349212Y-37755606D01*
X17117072Y-37786167D01*
X16882928Y-37786167D01*
X16650788Y-37755606D01*
X16424623Y-37695005D01*
X16208303Y-37605402D01*
X16005529Y-37488331D01*
X15819771Y-37345793D01*
X15654207Y-37180229D01*
X15511669Y-36994471D01*
X15394598Y-36791697D01*
X15304995Y-36575377D01*
X15244394Y-36349212D01*
X15213833Y-36117072D01*
X15213833Y-35882928D01*
X15244394Y-35650788D01*
X15304995Y-35424623D01*
X15394598Y-35208303D01*
X15511669Y-35005529D01*
X15654207Y-34819771D01*
X15819771Y-34654207D01*
X16005529Y-34511669D01*
X16208303Y-34394598D01*
X16424623Y-34304995D01*
X16650788Y-34244394D01*
X16882928Y-34213833D01*
X17117072Y-34213833D01*
X17349212Y-34244394D01*
G37*
G36*
X22364834Y-35604045D02*
G01*
X22526339Y-35636170D01*
X22678473Y-35699186D01*
X22815390Y-35790671D01*
X22931829Y-35907110D01*
X23023314Y-36044027D01*
X23086330Y-36196161D01*
X23118455Y-36357666D01*
X23118455Y-36522334D01*
X23086330Y-36683839D01*
X23023314Y-36835973D01*
X22931829Y-36972890D01*
X22815390Y-37089329D01*
X22678473Y-37180814D01*
X22526339Y-37243830D01*
X22364834Y-37275955D01*
X22282500Y-37280000D01*
X22281022Y-37280000D01*
X21283978Y-37280000D01*
X21282500Y-37280000D01*
X21200166Y-37275955D01*
X21038661Y-37243830D01*
X20886527Y-37180814D01*
X20749610Y-37089329D01*
X20633171Y-36972890D01*
X20541686Y-36835973D01*
X20478670Y-36683839D01*
X20446545Y-36522334D01*
X20446545Y-36357666D01*
X20478670Y-36196161D01*
X20541686Y-36044027D01*
X20633171Y-35907110D01*
X20749610Y-35790671D01*
X20886527Y-35699186D01*
X21038661Y-35636170D01*
X21200166Y-35604045D01*
X21282500Y-35600000D01*
X22282500Y-35600000D01*
X22364834Y-35604045D01*
G37*
G36*
X42084834Y-35604045D02*
G01*
X42246339Y-35636170D01*
X42398473Y-35699186D01*
X42535390Y-35790671D01*
X42651829Y-35907110D01*
X42743314Y-36044027D01*
X42806330Y-36196161D01*
X42838455Y-36357666D01*
X42838455Y-36522334D01*
X42806330Y-36683839D01*
X42743314Y-36835973D01*
X42651829Y-36972890D01*
X42535390Y-37089329D01*
X42398473Y-37180814D01*
X42246339Y-37243830D01*
X42084834Y-37275955D01*
X42002500Y-37280000D01*
X42001022Y-37280000D01*
X41003978Y-37280000D01*
X41002500Y-37280000D01*
X40920166Y-37275955D01*
X40758661Y-37243830D01*
X40606527Y-37180814D01*
X40469610Y-37089329D01*
X40353171Y-36972890D01*
X40261686Y-36835973D01*
X40198670Y-36683839D01*
X40166545Y-36522334D01*
X40166545Y-36357666D01*
X40198670Y-36196161D01*
X40261686Y-36044027D01*
X40353171Y-35907110D01*
X40469610Y-35790671D01*
X40606527Y-35699186D01*
X40758661Y-35636170D01*
X40920166Y-35604045D01*
X41002500Y-35600000D01*
X42002500Y-35600000D01*
X42084834Y-35604045D01*
G37*
G36*
X80099212Y-33494394D02*
G01*
X80325377Y-33554995D01*
X80541697Y-33644598D01*
X80744471Y-33761669D01*
X80930229Y-33904207D01*
X81095793Y-34069771D01*
X81238331Y-34255529D01*
X81355402Y-34458303D01*
X81445005Y-34674623D01*
X81505606Y-34900788D01*
X81536167Y-35132928D01*
X81536167Y-35367072D01*
X81505606Y-35599212D01*
X81445005Y-35825377D01*
X81355402Y-36041697D01*
X81238331Y-36244471D01*
X81095793Y-36430229D01*
X80930229Y-36595793D01*
X80744471Y-36738331D01*
X80541697Y-36855402D01*
X80325377Y-36945005D01*
X80099212Y-37005606D01*
X79867072Y-37036167D01*
X79632928Y-37036167D01*
X79400788Y-37005606D01*
X79174623Y-36945005D01*
X78958303Y-36855402D01*
X78755529Y-36738331D01*
X78569771Y-36595793D01*
X78404207Y-36430229D01*
X78261669Y-36244471D01*
X78144598Y-36041697D01*
X78054995Y-35825377D01*
X77994394Y-35599212D01*
X77963833Y-35367072D01*
X77963833Y-35132928D01*
X77994394Y-34900788D01*
X78054995Y-34674623D01*
X78144598Y-34458303D01*
X78261669Y-34255529D01*
X78404207Y-34069771D01*
X78569771Y-33904207D01*
X78755529Y-33761669D01*
X78958303Y-33644598D01*
X79174623Y-33554995D01*
X79400788Y-33494394D01*
X79632928Y-33463833D01*
X79867072Y-33463833D01*
X80099212Y-33494394D01*
G37*
G36*
X22364834Y-33064045D02*
G01*
X22526339Y-33096170D01*
X22678473Y-33159186D01*
X22815390Y-33250671D01*
X22931829Y-33367110D01*
X23023314Y-33504027D01*
X23086330Y-33656161D01*
X23118455Y-33817666D01*
X23118455Y-33982334D01*
X23086330Y-34143839D01*
X23023314Y-34295973D01*
X22931829Y-34432890D01*
X22815390Y-34549329D01*
X22678473Y-34640814D01*
X22526339Y-34703830D01*
X22364834Y-34735955D01*
X22282500Y-34740000D01*
X22281022Y-34740000D01*
X21283978Y-34740000D01*
X21282500Y-34740000D01*
X21200166Y-34735955D01*
X21038661Y-34703830D01*
X20886527Y-34640814D01*
X20749610Y-34549329D01*
X20633171Y-34432890D01*
X20541686Y-34295973D01*
X20478670Y-34143839D01*
X20446545Y-33982334D01*
X20446545Y-33817666D01*
X20478670Y-33656161D01*
X20541686Y-33504027D01*
X20633171Y-33367110D01*
X20749610Y-33250671D01*
X20886527Y-33159186D01*
X21038661Y-33096170D01*
X21200166Y-33064045D01*
X21282500Y-33060000D01*
X22282500Y-33060000D01*
X22364834Y-33064045D01*
G37*
G36*
X42084834Y-33064045D02*
G01*
X42246339Y-33096170D01*
X42398473Y-33159186D01*
X42535390Y-33250671D01*
X42651829Y-33367110D01*
X42743314Y-33504027D01*
X42806330Y-33656161D01*
X42838455Y-33817666D01*
X42838455Y-33982334D01*
X42806330Y-34143839D01*
X42743314Y-34295973D01*
X42651829Y-34432890D01*
X42535390Y-34549329D01*
X42398473Y-34640814D01*
X42246339Y-34703830D01*
X42084834Y-34735955D01*
X42002500Y-34740000D01*
X42001022Y-34740000D01*
X41003978Y-34740000D01*
X41002500Y-34740000D01*
X40920166Y-34735955D01*
X40758661Y-34703830D01*
X40606527Y-34640814D01*
X40469610Y-34549329D01*
X40353171Y-34432890D01*
X40261686Y-34295973D01*
X40198670Y-34143839D01*
X40166545Y-33982334D01*
X40166545Y-33817666D01*
X40198670Y-33656161D01*
X40261686Y-33504027D01*
X40353171Y-33367110D01*
X40469610Y-33250671D01*
X40606527Y-33159186D01*
X40758661Y-33096170D01*
X40920166Y-33064045D01*
X41002500Y-33060000D01*
X42002500Y-33060000D01*
X42084834Y-33064045D01*
G37*
M02*
