%TF.GenerationSoftware,KiCad,Pcbnew,10.0.0*%
%TF.CreationDate,2026-07-02T17:33:03-03:00*%
%TF.ProjectId,Monitores_de_camiones,4d6f6e69-746f-4726-9573-5f64655f6361,rev?*%
%TF.SameCoordinates,Original*%
%TF.FileFunction,Legend,Bot*%
%TF.FilePolarity,Positive*%
%FSLAX46Y46*%
G04 Gerber Fmt 4.6, Leading zero omitted, Abs format (unit mm)*
G04 Created by KiCad (PCBNEW 10.0.0) date 2026-07-02 17:33:03*
%MOMM*%
%LPD*%
G01*
G04 APERTURE LIST*
%ADD10C,0.100000*%
%ADD11C,0.150000*%
%ADD12C,0.120000*%
G04 APERTURE END LIST*
D10*
X74838972Y-35242587D02*
X74267544Y-35242587D01*
X74553258Y-36242587D02*
X74553258Y-35242587D01*
X73934210Y-36147348D02*
X73886591Y-36194968D01*
X73886591Y-36194968D02*
X73934210Y-36242587D01*
X73934210Y-36242587D02*
X73981829Y-36194968D01*
X73981829Y-36194968D02*
X73934210Y-36147348D01*
X73934210Y-36147348D02*
X73934210Y-36242587D01*
X73124687Y-35718777D02*
X73458020Y-35718777D01*
X73458020Y-36242587D02*
X73458020Y-35242587D01*
X73458020Y-35242587D02*
X72981830Y-35242587D01*
X72600877Y-36147348D02*
X72553258Y-36194968D01*
X72553258Y-36194968D02*
X72600877Y-36242587D01*
X72600877Y-36242587D02*
X72648496Y-36194968D01*
X72648496Y-36194968D02*
X72600877Y-36147348D01*
X72600877Y-36147348D02*
X72600877Y-36242587D01*
X71362782Y-36242587D02*
X71362782Y-35242587D01*
X71362782Y-35242587D02*
X70981830Y-35242587D01*
X70981830Y-35242587D02*
X70886592Y-35290206D01*
X70886592Y-35290206D02*
X70838973Y-35337825D01*
X70838973Y-35337825D02*
X70791354Y-35433063D01*
X70791354Y-35433063D02*
X70791354Y-35575920D01*
X70791354Y-35575920D02*
X70838973Y-35671158D01*
X70838973Y-35671158D02*
X70886592Y-35718777D01*
X70886592Y-35718777D02*
X70981830Y-35766396D01*
X70981830Y-35766396D02*
X71362782Y-35766396D01*
X70362782Y-36242587D02*
X70362782Y-35575920D01*
X70362782Y-35766396D02*
X70315163Y-35671158D01*
X70315163Y-35671158D02*
X70267544Y-35623539D01*
X70267544Y-35623539D02*
X70172306Y-35575920D01*
X70172306Y-35575920D02*
X70077068Y-35575920D01*
X69362782Y-36194968D02*
X69458020Y-36242587D01*
X69458020Y-36242587D02*
X69648496Y-36242587D01*
X69648496Y-36242587D02*
X69743734Y-36194968D01*
X69743734Y-36194968D02*
X69791353Y-36099729D01*
X69791353Y-36099729D02*
X69791353Y-35718777D01*
X69791353Y-35718777D02*
X69743734Y-35623539D01*
X69743734Y-35623539D02*
X69648496Y-35575920D01*
X69648496Y-35575920D02*
X69458020Y-35575920D01*
X69458020Y-35575920D02*
X69362782Y-35623539D01*
X69362782Y-35623539D02*
X69315163Y-35718777D01*
X69315163Y-35718777D02*
X69315163Y-35814015D01*
X69315163Y-35814015D02*
X69791353Y-35909253D01*
X68981829Y-35575920D02*
X68743734Y-36242587D01*
X68743734Y-36242587D02*
X68505639Y-35575920D01*
X67743734Y-36194968D02*
X67838972Y-36242587D01*
X67838972Y-36242587D02*
X68029448Y-36242587D01*
X68029448Y-36242587D02*
X68124686Y-36194968D01*
X68124686Y-36194968D02*
X68172305Y-36099729D01*
X68172305Y-36099729D02*
X68172305Y-35718777D01*
X68172305Y-35718777D02*
X68124686Y-35623539D01*
X68124686Y-35623539D02*
X68029448Y-35575920D01*
X68029448Y-35575920D02*
X67838972Y-35575920D01*
X67838972Y-35575920D02*
X67743734Y-35623539D01*
X67743734Y-35623539D02*
X67696115Y-35718777D01*
X67696115Y-35718777D02*
X67696115Y-35814015D01*
X67696115Y-35814015D02*
X68172305Y-35909253D01*
X67315162Y-36194968D02*
X67219924Y-36242587D01*
X67219924Y-36242587D02*
X67029448Y-36242587D01*
X67029448Y-36242587D02*
X66934210Y-36194968D01*
X66934210Y-36194968D02*
X66886591Y-36099729D01*
X66886591Y-36099729D02*
X66886591Y-36052110D01*
X66886591Y-36052110D02*
X66934210Y-35956872D01*
X66934210Y-35956872D02*
X67029448Y-35909253D01*
X67029448Y-35909253D02*
X67172305Y-35909253D01*
X67172305Y-35909253D02*
X67267543Y-35861634D01*
X67267543Y-35861634D02*
X67315162Y-35766396D01*
X67315162Y-35766396D02*
X67315162Y-35718777D01*
X67315162Y-35718777D02*
X67267543Y-35623539D01*
X67267543Y-35623539D02*
X67172305Y-35575920D01*
X67172305Y-35575920D02*
X67029448Y-35575920D01*
X67029448Y-35575920D02*
X66934210Y-35623539D01*
X66410400Y-36194968D02*
X66410400Y-36242587D01*
X66410400Y-36242587D02*
X66458019Y-36337825D01*
X66458019Y-36337825D02*
X66505638Y-36385444D01*
X65267543Y-36194968D02*
X65124686Y-36242587D01*
X65124686Y-36242587D02*
X64886591Y-36242587D01*
X64886591Y-36242587D02*
X64791353Y-36194968D01*
X64791353Y-36194968D02*
X64743734Y-36147348D01*
X64743734Y-36147348D02*
X64696115Y-36052110D01*
X64696115Y-36052110D02*
X64696115Y-35956872D01*
X64696115Y-35956872D02*
X64743734Y-35861634D01*
X64743734Y-35861634D02*
X64791353Y-35814015D01*
X64791353Y-35814015D02*
X64886591Y-35766396D01*
X64886591Y-35766396D02*
X65077067Y-35718777D01*
X65077067Y-35718777D02*
X65172305Y-35671158D01*
X65172305Y-35671158D02*
X65219924Y-35623539D01*
X65219924Y-35623539D02*
X65267543Y-35528301D01*
X65267543Y-35528301D02*
X65267543Y-35433063D01*
X65267543Y-35433063D02*
X65219924Y-35337825D01*
X65219924Y-35337825D02*
X65172305Y-35290206D01*
X65172305Y-35290206D02*
X65077067Y-35242587D01*
X65077067Y-35242587D02*
X64838972Y-35242587D01*
X64838972Y-35242587D02*
X64696115Y-35290206D01*
X63838972Y-36242587D02*
X63838972Y-35718777D01*
X63838972Y-35718777D02*
X63886591Y-35623539D01*
X63886591Y-35623539D02*
X63981829Y-35575920D01*
X63981829Y-35575920D02*
X64172305Y-35575920D01*
X64172305Y-35575920D02*
X64267543Y-35623539D01*
X63838972Y-36194968D02*
X63934210Y-36242587D01*
X63934210Y-36242587D02*
X64172305Y-36242587D01*
X64172305Y-36242587D02*
X64267543Y-36194968D01*
X64267543Y-36194968D02*
X64315162Y-36099729D01*
X64315162Y-36099729D02*
X64315162Y-36004491D01*
X64315162Y-36004491D02*
X64267543Y-35909253D01*
X64267543Y-35909253D02*
X64172305Y-35861634D01*
X64172305Y-35861634D02*
X63934210Y-35861634D01*
X63934210Y-35861634D02*
X63838972Y-35814015D01*
X63362781Y-35575920D02*
X63362781Y-36242587D01*
X63362781Y-35671158D02*
X63315162Y-35623539D01*
X63315162Y-35623539D02*
X63219924Y-35575920D01*
X63219924Y-35575920D02*
X63077067Y-35575920D01*
X63077067Y-35575920D02*
X62981829Y-35623539D01*
X62981829Y-35623539D02*
X62934210Y-35718777D01*
X62934210Y-35718777D02*
X62934210Y-36242587D01*
X62600876Y-35575920D02*
X62219924Y-35575920D01*
X62458019Y-35242587D02*
X62458019Y-36099729D01*
X62458019Y-36099729D02*
X62410400Y-36194968D01*
X62410400Y-36194968D02*
X62315162Y-36242587D01*
X62315162Y-36242587D02*
X62219924Y-36242587D01*
X61886590Y-36242587D02*
X61886590Y-35575920D01*
X61886590Y-35242587D02*
X61934209Y-35290206D01*
X61934209Y-35290206D02*
X61886590Y-35337825D01*
X61886590Y-35337825D02*
X61838971Y-35290206D01*
X61838971Y-35290206D02*
X61886590Y-35242587D01*
X61886590Y-35242587D02*
X61886590Y-35337825D01*
X60981829Y-36242587D02*
X60981829Y-35718777D01*
X60981829Y-35718777D02*
X61029448Y-35623539D01*
X61029448Y-35623539D02*
X61124686Y-35575920D01*
X61124686Y-35575920D02*
X61315162Y-35575920D01*
X61315162Y-35575920D02*
X61410400Y-35623539D01*
X60981829Y-36194968D02*
X61077067Y-36242587D01*
X61077067Y-36242587D02*
X61315162Y-36242587D01*
X61315162Y-36242587D02*
X61410400Y-36194968D01*
X61410400Y-36194968D02*
X61458019Y-36099729D01*
X61458019Y-36099729D02*
X61458019Y-36004491D01*
X61458019Y-36004491D02*
X61410400Y-35909253D01*
X61410400Y-35909253D02*
X61315162Y-35861634D01*
X61315162Y-35861634D02*
X61077067Y-35861634D01*
X61077067Y-35861634D02*
X60981829Y-35814015D01*
X60077067Y-35575920D02*
X60077067Y-36385444D01*
X60077067Y-36385444D02*
X60124686Y-36480682D01*
X60124686Y-36480682D02*
X60172305Y-36528301D01*
X60172305Y-36528301D02*
X60267543Y-36575920D01*
X60267543Y-36575920D02*
X60410400Y-36575920D01*
X60410400Y-36575920D02*
X60505638Y-36528301D01*
X60077067Y-36194968D02*
X60172305Y-36242587D01*
X60172305Y-36242587D02*
X60362781Y-36242587D01*
X60362781Y-36242587D02*
X60458019Y-36194968D01*
X60458019Y-36194968D02*
X60505638Y-36147348D01*
X60505638Y-36147348D02*
X60553257Y-36052110D01*
X60553257Y-36052110D02*
X60553257Y-35766396D01*
X60553257Y-35766396D02*
X60505638Y-35671158D01*
X60505638Y-35671158D02*
X60458019Y-35623539D01*
X60458019Y-35623539D02*
X60362781Y-35575920D01*
X60362781Y-35575920D02*
X60172305Y-35575920D01*
X60172305Y-35575920D02*
X60077067Y-35623539D01*
X59458019Y-36242587D02*
X59553257Y-36194968D01*
X59553257Y-36194968D02*
X59600876Y-36147348D01*
X59600876Y-36147348D02*
X59648495Y-36052110D01*
X59648495Y-36052110D02*
X59648495Y-35766396D01*
X59648495Y-35766396D02*
X59600876Y-35671158D01*
X59600876Y-35671158D02*
X59553257Y-35623539D01*
X59553257Y-35623539D02*
X59458019Y-35575920D01*
X59458019Y-35575920D02*
X59315162Y-35575920D01*
X59315162Y-35575920D02*
X59219924Y-35623539D01*
X59219924Y-35623539D02*
X59172305Y-35671158D01*
X59172305Y-35671158D02*
X59124686Y-35766396D01*
X59124686Y-35766396D02*
X59124686Y-36052110D01*
X59124686Y-36052110D02*
X59172305Y-36147348D01*
X59172305Y-36147348D02*
X59219924Y-36194968D01*
X59219924Y-36194968D02*
X59315162Y-36242587D01*
X59315162Y-36242587D02*
X59458019Y-36242587D01*
X74696115Y-37852531D02*
X74696115Y-36852531D01*
X74219925Y-37185864D02*
X74219925Y-37852531D01*
X74219925Y-37281102D02*
X74172306Y-37233483D01*
X74172306Y-37233483D02*
X74077068Y-37185864D01*
X74077068Y-37185864D02*
X73934211Y-37185864D01*
X73934211Y-37185864D02*
X73838973Y-37233483D01*
X73838973Y-37233483D02*
X73791354Y-37328721D01*
X73791354Y-37328721D02*
X73791354Y-37852531D01*
X72886592Y-37185864D02*
X72886592Y-37995388D01*
X72886592Y-37995388D02*
X72934211Y-38090626D01*
X72934211Y-38090626D02*
X72981830Y-38138245D01*
X72981830Y-38138245D02*
X73077068Y-38185864D01*
X73077068Y-38185864D02*
X73219925Y-38185864D01*
X73219925Y-38185864D02*
X73315163Y-38138245D01*
X72886592Y-37804912D02*
X72981830Y-37852531D01*
X72981830Y-37852531D02*
X73172306Y-37852531D01*
X73172306Y-37852531D02*
X73267544Y-37804912D01*
X73267544Y-37804912D02*
X73315163Y-37757292D01*
X73315163Y-37757292D02*
X73362782Y-37662054D01*
X73362782Y-37662054D02*
X73362782Y-37376340D01*
X73362782Y-37376340D02*
X73315163Y-37281102D01*
X73315163Y-37281102D02*
X73267544Y-37233483D01*
X73267544Y-37233483D02*
X73172306Y-37185864D01*
X73172306Y-37185864D02*
X72981830Y-37185864D01*
X72981830Y-37185864D02*
X72886592Y-37233483D01*
X72029449Y-37804912D02*
X72124687Y-37852531D01*
X72124687Y-37852531D02*
X72315163Y-37852531D01*
X72315163Y-37852531D02*
X72410401Y-37804912D01*
X72410401Y-37804912D02*
X72458020Y-37709673D01*
X72458020Y-37709673D02*
X72458020Y-37328721D01*
X72458020Y-37328721D02*
X72410401Y-37233483D01*
X72410401Y-37233483D02*
X72315163Y-37185864D01*
X72315163Y-37185864D02*
X72124687Y-37185864D01*
X72124687Y-37185864D02*
X72029449Y-37233483D01*
X72029449Y-37233483D02*
X71981830Y-37328721D01*
X71981830Y-37328721D02*
X71981830Y-37423959D01*
X71981830Y-37423959D02*
X72458020Y-37519197D01*
X71553258Y-37185864D02*
X71553258Y-37852531D01*
X71553258Y-37281102D02*
X71505639Y-37233483D01*
X71505639Y-37233483D02*
X71410401Y-37185864D01*
X71410401Y-37185864D02*
X71267544Y-37185864D01*
X71267544Y-37185864D02*
X71172306Y-37233483D01*
X71172306Y-37233483D02*
X71124687Y-37328721D01*
X71124687Y-37328721D02*
X71124687Y-37852531D01*
X70648496Y-37852531D02*
X70648496Y-37185864D01*
X70648496Y-36852531D02*
X70696115Y-36900150D01*
X70696115Y-36900150D02*
X70648496Y-36947769D01*
X70648496Y-36947769D02*
X70600877Y-36900150D01*
X70600877Y-36900150D02*
X70648496Y-36852531D01*
X70648496Y-36852531D02*
X70648496Y-36947769D01*
X69791354Y-37804912D02*
X69886592Y-37852531D01*
X69886592Y-37852531D02*
X70077068Y-37852531D01*
X70077068Y-37852531D02*
X70172306Y-37804912D01*
X70172306Y-37804912D02*
X70219925Y-37709673D01*
X70219925Y-37709673D02*
X70219925Y-37328721D01*
X70219925Y-37328721D02*
X70172306Y-37233483D01*
X70172306Y-37233483D02*
X70077068Y-37185864D01*
X70077068Y-37185864D02*
X69886592Y-37185864D01*
X69886592Y-37185864D02*
X69791354Y-37233483D01*
X69791354Y-37233483D02*
X69743735Y-37328721D01*
X69743735Y-37328721D02*
X69743735Y-37423959D01*
X69743735Y-37423959D02*
X70219925Y-37519197D01*
X69315163Y-37852531D02*
X69315163Y-37185864D01*
X69315163Y-37376340D02*
X69267544Y-37281102D01*
X69267544Y-37281102D02*
X69219925Y-37233483D01*
X69219925Y-37233483D02*
X69124687Y-37185864D01*
X69124687Y-37185864D02*
X69029449Y-37185864D01*
X68696115Y-37852531D02*
X68696115Y-37185864D01*
X68600877Y-36804912D02*
X68743734Y-36947769D01*
X67791354Y-37852531D02*
X67791354Y-37328721D01*
X67791354Y-37328721D02*
X67838973Y-37233483D01*
X67838973Y-37233483D02*
X67934211Y-37185864D01*
X67934211Y-37185864D02*
X68124687Y-37185864D01*
X68124687Y-37185864D02*
X68219925Y-37233483D01*
X67791354Y-37804912D02*
X67886592Y-37852531D01*
X67886592Y-37852531D02*
X68124687Y-37852531D01*
X68124687Y-37852531D02*
X68219925Y-37804912D01*
X68219925Y-37804912D02*
X68267544Y-37709673D01*
X68267544Y-37709673D02*
X68267544Y-37614435D01*
X68267544Y-37614435D02*
X68219925Y-37519197D01*
X68219925Y-37519197D02*
X68124687Y-37471578D01*
X68124687Y-37471578D02*
X67886592Y-37471578D01*
X67886592Y-37471578D02*
X67791354Y-37423959D01*
X66553258Y-37328721D02*
X66219925Y-37328721D01*
X66077068Y-37852531D02*
X66553258Y-37852531D01*
X66553258Y-37852531D02*
X66553258Y-36852531D01*
X66553258Y-36852531D02*
X66077068Y-36852531D01*
X65505639Y-37852531D02*
X65600877Y-37804912D01*
X65600877Y-37804912D02*
X65648496Y-37709673D01*
X65648496Y-37709673D02*
X65648496Y-36852531D01*
X64743734Y-37804912D02*
X64838972Y-37852531D01*
X64838972Y-37852531D02*
X65029448Y-37852531D01*
X65029448Y-37852531D02*
X65124686Y-37804912D01*
X65124686Y-37804912D02*
X65172305Y-37709673D01*
X65172305Y-37709673D02*
X65172305Y-37328721D01*
X65172305Y-37328721D02*
X65124686Y-37233483D01*
X65124686Y-37233483D02*
X65029448Y-37185864D01*
X65029448Y-37185864D02*
X64838972Y-37185864D01*
X64838972Y-37185864D02*
X64743734Y-37233483D01*
X64743734Y-37233483D02*
X64696115Y-37328721D01*
X64696115Y-37328721D02*
X64696115Y-37423959D01*
X64696115Y-37423959D02*
X65172305Y-37519197D01*
X63838972Y-37804912D02*
X63934210Y-37852531D01*
X63934210Y-37852531D02*
X64124686Y-37852531D01*
X64124686Y-37852531D02*
X64219924Y-37804912D01*
X64219924Y-37804912D02*
X64267543Y-37757292D01*
X64267543Y-37757292D02*
X64315162Y-37662054D01*
X64315162Y-37662054D02*
X64315162Y-37376340D01*
X64315162Y-37376340D02*
X64267543Y-37281102D01*
X64267543Y-37281102D02*
X64219924Y-37233483D01*
X64219924Y-37233483D02*
X64124686Y-37185864D01*
X64124686Y-37185864D02*
X63934210Y-37185864D01*
X63934210Y-37185864D02*
X63838972Y-37233483D01*
X63553257Y-37185864D02*
X63172305Y-37185864D01*
X63410400Y-36852531D02*
X63410400Y-37709673D01*
X63410400Y-37709673D02*
X63362781Y-37804912D01*
X63362781Y-37804912D02*
X63267543Y-37852531D01*
X63267543Y-37852531D02*
X63172305Y-37852531D01*
X62838971Y-37852531D02*
X62838971Y-37185864D01*
X62838971Y-37376340D02*
X62791352Y-37281102D01*
X62791352Y-37281102D02*
X62743733Y-37233483D01*
X62743733Y-37233483D02*
X62648495Y-37185864D01*
X62648495Y-37185864D02*
X62553257Y-37185864D01*
X62077066Y-37852531D02*
X62172304Y-37804912D01*
X62172304Y-37804912D02*
X62219923Y-37757292D01*
X62219923Y-37757292D02*
X62267542Y-37662054D01*
X62267542Y-37662054D02*
X62267542Y-37376340D01*
X62267542Y-37376340D02*
X62219923Y-37281102D01*
X62219923Y-37281102D02*
X62172304Y-37233483D01*
X62172304Y-37233483D02*
X62077066Y-37185864D01*
X62077066Y-37185864D02*
X61934209Y-37185864D01*
X61934209Y-37185864D02*
X61838971Y-37233483D01*
X61838971Y-37233483D02*
X61791352Y-37281102D01*
X61791352Y-37281102D02*
X61743733Y-37376340D01*
X61743733Y-37376340D02*
X61743733Y-37662054D01*
X61743733Y-37662054D02*
X61791352Y-37757292D01*
X61791352Y-37757292D02*
X61838971Y-37804912D01*
X61838971Y-37804912D02*
X61934209Y-37852531D01*
X61934209Y-37852531D02*
X62077066Y-37852531D01*
X61886590Y-36804912D02*
X62029447Y-36947769D01*
X61315161Y-37185864D02*
X61315161Y-37852531D01*
X61315161Y-37281102D02*
X61267542Y-37233483D01*
X61267542Y-37233483D02*
X61172304Y-37185864D01*
X61172304Y-37185864D02*
X61029447Y-37185864D01*
X61029447Y-37185864D02*
X60934209Y-37233483D01*
X60934209Y-37233483D02*
X60886590Y-37328721D01*
X60886590Y-37328721D02*
X60886590Y-37852531D01*
X60410399Y-37852531D02*
X60410399Y-37185864D01*
X60410399Y-36852531D02*
X60458018Y-36900150D01*
X60458018Y-36900150D02*
X60410399Y-36947769D01*
X60410399Y-36947769D02*
X60362780Y-36900150D01*
X60362780Y-36900150D02*
X60410399Y-36852531D01*
X60410399Y-36852531D02*
X60410399Y-36947769D01*
X59505638Y-37804912D02*
X59600876Y-37852531D01*
X59600876Y-37852531D02*
X59791352Y-37852531D01*
X59791352Y-37852531D02*
X59886590Y-37804912D01*
X59886590Y-37804912D02*
X59934209Y-37757292D01*
X59934209Y-37757292D02*
X59981828Y-37662054D01*
X59981828Y-37662054D02*
X59981828Y-37376340D01*
X59981828Y-37376340D02*
X59934209Y-37281102D01*
X59934209Y-37281102D02*
X59886590Y-37233483D01*
X59886590Y-37233483D02*
X59791352Y-37185864D01*
X59791352Y-37185864D02*
X59600876Y-37185864D01*
X59600876Y-37185864D02*
X59505638Y-37233483D01*
X58648495Y-37852531D02*
X58648495Y-37328721D01*
X58648495Y-37328721D02*
X58696114Y-37233483D01*
X58696114Y-37233483D02*
X58791352Y-37185864D01*
X58791352Y-37185864D02*
X58981828Y-37185864D01*
X58981828Y-37185864D02*
X59077066Y-37233483D01*
X58648495Y-37804912D02*
X58743733Y-37852531D01*
X58743733Y-37852531D02*
X58981828Y-37852531D01*
X58981828Y-37852531D02*
X59077066Y-37804912D01*
X59077066Y-37804912D02*
X59124685Y-37709673D01*
X59124685Y-37709673D02*
X59124685Y-37614435D01*
X59124685Y-37614435D02*
X59077066Y-37519197D01*
X59077066Y-37519197D02*
X58981828Y-37471578D01*
X58981828Y-37471578D02*
X58743733Y-37471578D01*
X58743733Y-37471578D02*
X58648495Y-37423959D01*
X74362782Y-38938665D02*
X74696115Y-38938665D01*
X74696115Y-39462475D02*
X74696115Y-38462475D01*
X74696115Y-38462475D02*
X74219925Y-38462475D01*
X73838972Y-39462475D02*
X73838972Y-38462475D01*
X73315163Y-39414856D02*
X73315163Y-39462475D01*
X73315163Y-39462475D02*
X73362782Y-39557713D01*
X73362782Y-39557713D02*
X73410401Y-39605332D01*
X72124687Y-38462475D02*
X72124687Y-39271998D01*
X72124687Y-39271998D02*
X72077068Y-39367236D01*
X72077068Y-39367236D02*
X72029449Y-39414856D01*
X72029449Y-39414856D02*
X71934211Y-39462475D01*
X71934211Y-39462475D02*
X71743735Y-39462475D01*
X71743735Y-39462475D02*
X71648497Y-39414856D01*
X71648497Y-39414856D02*
X71600878Y-39367236D01*
X71600878Y-39367236D02*
X71553259Y-39271998D01*
X71553259Y-39271998D02*
X71553259Y-38462475D01*
X71077068Y-39462475D02*
X71077068Y-38462475D01*
X71077068Y-38462475D02*
X70505640Y-39462475D01*
X70505640Y-39462475D02*
X70505640Y-38462475D01*
X70029449Y-39462475D02*
X70029449Y-38462475D01*
X70029449Y-38462475D02*
X69696116Y-39176760D01*
X69696116Y-39176760D02*
X69362783Y-38462475D01*
X69362783Y-38462475D02*
X69362783Y-39462475D01*
X68458021Y-39462475D02*
X68458021Y-38462475D01*
X68458021Y-39414856D02*
X68553259Y-39462475D01*
X68553259Y-39462475D02*
X68743735Y-39462475D01*
X68743735Y-39462475D02*
X68838973Y-39414856D01*
X68838973Y-39414856D02*
X68886592Y-39367236D01*
X68886592Y-39367236D02*
X68934211Y-39271998D01*
X68934211Y-39271998D02*
X68934211Y-38986284D01*
X68934211Y-38986284D02*
X68886592Y-38891046D01*
X68886592Y-38891046D02*
X68838973Y-38843427D01*
X68838973Y-38843427D02*
X68743735Y-38795808D01*
X68743735Y-38795808D02*
X68553259Y-38795808D01*
X68553259Y-38795808D02*
X68458021Y-38843427D01*
X67981830Y-39462475D02*
X67981830Y-38462475D01*
X67981830Y-38462475D02*
X67600878Y-38462475D01*
X67600878Y-38462475D02*
X67505640Y-38510094D01*
X67505640Y-38510094D02*
X67458021Y-38557713D01*
X67458021Y-38557713D02*
X67410402Y-38652951D01*
X67410402Y-38652951D02*
X67410402Y-38795808D01*
X67410402Y-38795808D02*
X67458021Y-38891046D01*
X67458021Y-38891046D02*
X67505640Y-38938665D01*
X67505640Y-38938665D02*
X67600878Y-38986284D01*
X67600878Y-38986284D02*
X67981830Y-38986284D01*
X74219925Y-41072419D02*
X74696115Y-41072419D01*
X74696115Y-41072419D02*
X74696115Y-40072419D01*
X73886591Y-41072419D02*
X73886591Y-40072419D01*
X73553258Y-40072419D02*
X73219925Y-41072419D01*
X73219925Y-41072419D02*
X72886592Y-40072419D01*
X71981830Y-41072419D02*
X72315163Y-40596228D01*
X72553258Y-41072419D02*
X72553258Y-40072419D01*
X72553258Y-40072419D02*
X72172306Y-40072419D01*
X72172306Y-40072419D02*
X72077068Y-40120038D01*
X72077068Y-40120038D02*
X72029449Y-40167657D01*
X72029449Y-40167657D02*
X71981830Y-40262895D01*
X71981830Y-40262895D02*
X71981830Y-40405752D01*
X71981830Y-40405752D02*
X72029449Y-40500990D01*
X72029449Y-40500990D02*
X72077068Y-40548609D01*
X72077068Y-40548609D02*
X72172306Y-40596228D01*
X72172306Y-40596228D02*
X72553258Y-40596228D01*
X71600877Y-40786704D02*
X71124687Y-40786704D01*
X71696115Y-41072419D02*
X71362782Y-40072419D01*
X71362782Y-40072419D02*
X71029449Y-41072419D01*
D11*
X31509580Y-80033333D02*
X31557200Y-79985714D01*
X31557200Y-79985714D02*
X31604819Y-79842857D01*
X31604819Y-79842857D02*
X31604819Y-79747619D01*
X31604819Y-79747619D02*
X31557200Y-79604762D01*
X31557200Y-79604762D02*
X31461961Y-79509524D01*
X31461961Y-79509524D02*
X31366723Y-79461905D01*
X31366723Y-79461905D02*
X31176247Y-79414286D01*
X31176247Y-79414286D02*
X31033390Y-79414286D01*
X31033390Y-79414286D02*
X30842914Y-79461905D01*
X30842914Y-79461905D02*
X30747676Y-79509524D01*
X30747676Y-79509524D02*
X30652438Y-79604762D01*
X30652438Y-79604762D02*
X30604819Y-79747619D01*
X30604819Y-79747619D02*
X30604819Y-79842857D01*
X30604819Y-79842857D02*
X30652438Y-79985714D01*
X30652438Y-79985714D02*
X30700057Y-80033333D01*
X30604819Y-80938095D02*
X30604819Y-80461905D01*
X30604819Y-80461905D02*
X31081009Y-80414286D01*
X31081009Y-80414286D02*
X31033390Y-80461905D01*
X31033390Y-80461905D02*
X30985771Y-80557143D01*
X30985771Y-80557143D02*
X30985771Y-80795238D01*
X30985771Y-80795238D02*
X31033390Y-80890476D01*
X31033390Y-80890476D02*
X31081009Y-80938095D01*
X31081009Y-80938095D02*
X31176247Y-80985714D01*
X31176247Y-80985714D02*
X31414342Y-80985714D01*
X31414342Y-80985714D02*
X31509580Y-80938095D01*
X31509580Y-80938095D02*
X31557200Y-80890476D01*
X31557200Y-80890476D02*
X31604819Y-80795238D01*
X31604819Y-80795238D02*
X31604819Y-80557143D01*
X31604819Y-80557143D02*
X31557200Y-80461905D01*
X31557200Y-80461905D02*
X31509580Y-80414286D01*
X33504819Y-52557142D02*
X33028628Y-52223809D01*
X33504819Y-51985714D02*
X32504819Y-51985714D01*
X32504819Y-51985714D02*
X32504819Y-52366666D01*
X32504819Y-52366666D02*
X32552438Y-52461904D01*
X32552438Y-52461904D02*
X32600057Y-52509523D01*
X32600057Y-52509523D02*
X32695295Y-52557142D01*
X32695295Y-52557142D02*
X32838152Y-52557142D01*
X32838152Y-52557142D02*
X32933390Y-52509523D01*
X32933390Y-52509523D02*
X32981009Y-52461904D01*
X32981009Y-52461904D02*
X33028628Y-52366666D01*
X33028628Y-52366666D02*
X33028628Y-51985714D01*
X33504819Y-53509523D02*
X33504819Y-52938095D01*
X33504819Y-53223809D02*
X32504819Y-53223809D01*
X32504819Y-53223809D02*
X32647676Y-53128571D01*
X32647676Y-53128571D02*
X32742914Y-53033333D01*
X32742914Y-53033333D02*
X32790533Y-52938095D01*
X32504819Y-53842857D02*
X32504819Y-54509523D01*
X32504819Y-54509523D02*
X33504819Y-54080952D01*
X37204819Y-79383333D02*
X36728628Y-79050000D01*
X37204819Y-78811905D02*
X36204819Y-78811905D01*
X36204819Y-78811905D02*
X36204819Y-79192857D01*
X36204819Y-79192857D02*
X36252438Y-79288095D01*
X36252438Y-79288095D02*
X36300057Y-79335714D01*
X36300057Y-79335714D02*
X36395295Y-79383333D01*
X36395295Y-79383333D02*
X36538152Y-79383333D01*
X36538152Y-79383333D02*
X36633390Y-79335714D01*
X36633390Y-79335714D02*
X36681009Y-79288095D01*
X36681009Y-79288095D02*
X36728628Y-79192857D01*
X36728628Y-79192857D02*
X36728628Y-78811905D01*
X36204819Y-80288095D02*
X36204819Y-79811905D01*
X36204819Y-79811905D02*
X36681009Y-79764286D01*
X36681009Y-79764286D02*
X36633390Y-79811905D01*
X36633390Y-79811905D02*
X36585771Y-79907143D01*
X36585771Y-79907143D02*
X36585771Y-80145238D01*
X36585771Y-80145238D02*
X36633390Y-80240476D01*
X36633390Y-80240476D02*
X36681009Y-80288095D01*
X36681009Y-80288095D02*
X36776247Y-80335714D01*
X36776247Y-80335714D02*
X37014342Y-80335714D01*
X37014342Y-80335714D02*
X37109580Y-80288095D01*
X37109580Y-80288095D02*
X37157200Y-80240476D01*
X37157200Y-80240476D02*
X37204819Y-80145238D01*
X37204819Y-80145238D02*
X37204819Y-79907143D01*
X37204819Y-79907143D02*
X37157200Y-79811905D01*
X37157200Y-79811905D02*
X37109580Y-79764286D01*
X39904819Y-59757142D02*
X39428628Y-59423809D01*
X39904819Y-59185714D02*
X38904819Y-59185714D01*
X38904819Y-59185714D02*
X38904819Y-59566666D01*
X38904819Y-59566666D02*
X38952438Y-59661904D01*
X38952438Y-59661904D02*
X39000057Y-59709523D01*
X39000057Y-59709523D02*
X39095295Y-59757142D01*
X39095295Y-59757142D02*
X39238152Y-59757142D01*
X39238152Y-59757142D02*
X39333390Y-59709523D01*
X39333390Y-59709523D02*
X39381009Y-59661904D01*
X39381009Y-59661904D02*
X39428628Y-59566666D01*
X39428628Y-59566666D02*
X39428628Y-59185714D01*
X39904819Y-60709523D02*
X39904819Y-60138095D01*
X39904819Y-60423809D02*
X38904819Y-60423809D01*
X38904819Y-60423809D02*
X39047676Y-60328571D01*
X39047676Y-60328571D02*
X39142914Y-60233333D01*
X39142914Y-60233333D02*
X39190533Y-60138095D01*
X38904819Y-61614285D02*
X38904819Y-61138095D01*
X38904819Y-61138095D02*
X39381009Y-61090476D01*
X39381009Y-61090476D02*
X39333390Y-61138095D01*
X39333390Y-61138095D02*
X39285771Y-61233333D01*
X39285771Y-61233333D02*
X39285771Y-61471428D01*
X39285771Y-61471428D02*
X39333390Y-61566666D01*
X39333390Y-61566666D02*
X39381009Y-61614285D01*
X39381009Y-61614285D02*
X39476247Y-61661904D01*
X39476247Y-61661904D02*
X39714342Y-61661904D01*
X39714342Y-61661904D02*
X39809580Y-61614285D01*
X39809580Y-61614285D02*
X39857200Y-61566666D01*
X39857200Y-61566666D02*
X39904819Y-61471428D01*
X39904819Y-61471428D02*
X39904819Y-61233333D01*
X39904819Y-61233333D02*
X39857200Y-61138095D01*
X39857200Y-61138095D02*
X39809580Y-61090476D01*
X22309580Y-79633333D02*
X22357200Y-79585714D01*
X22357200Y-79585714D02*
X22404819Y-79442857D01*
X22404819Y-79442857D02*
X22404819Y-79347619D01*
X22404819Y-79347619D02*
X22357200Y-79204762D01*
X22357200Y-79204762D02*
X22261961Y-79109524D01*
X22261961Y-79109524D02*
X22166723Y-79061905D01*
X22166723Y-79061905D02*
X21976247Y-79014286D01*
X21976247Y-79014286D02*
X21833390Y-79014286D01*
X21833390Y-79014286D02*
X21642914Y-79061905D01*
X21642914Y-79061905D02*
X21547676Y-79109524D01*
X21547676Y-79109524D02*
X21452438Y-79204762D01*
X21452438Y-79204762D02*
X21404819Y-79347619D01*
X21404819Y-79347619D02*
X21404819Y-79442857D01*
X21404819Y-79442857D02*
X21452438Y-79585714D01*
X21452438Y-79585714D02*
X21500057Y-79633333D01*
X21738152Y-80490476D02*
X22404819Y-80490476D01*
X21357200Y-80252381D02*
X22071485Y-80014286D01*
X22071485Y-80014286D02*
X22071485Y-80633333D01*
X39538094Y-73554819D02*
X39538094Y-72554819D01*
X39538094Y-72554819D02*
X39299999Y-72554819D01*
X39299999Y-72554819D02*
X39157142Y-72602438D01*
X39157142Y-72602438D02*
X39061904Y-72697676D01*
X39061904Y-72697676D02*
X39014285Y-72792914D01*
X39014285Y-72792914D02*
X38966666Y-72983390D01*
X38966666Y-72983390D02*
X38966666Y-73126247D01*
X38966666Y-73126247D02*
X39014285Y-73316723D01*
X39014285Y-73316723D02*
X39061904Y-73411961D01*
X39061904Y-73411961D02*
X39157142Y-73507200D01*
X39157142Y-73507200D02*
X39299999Y-73554819D01*
X39299999Y-73554819D02*
X39538094Y-73554819D01*
X38014285Y-73554819D02*
X38585713Y-73554819D01*
X38299999Y-73554819D02*
X38299999Y-72554819D01*
X38299999Y-72554819D02*
X38395237Y-72697676D01*
X38395237Y-72697676D02*
X38490475Y-72792914D01*
X38490475Y-72792914D02*
X38585713Y-72840533D01*
X37204819Y-84183333D02*
X36728628Y-83850000D01*
X37204819Y-83611905D02*
X36204819Y-83611905D01*
X36204819Y-83611905D02*
X36204819Y-83992857D01*
X36204819Y-83992857D02*
X36252438Y-84088095D01*
X36252438Y-84088095D02*
X36300057Y-84135714D01*
X36300057Y-84135714D02*
X36395295Y-84183333D01*
X36395295Y-84183333D02*
X36538152Y-84183333D01*
X36538152Y-84183333D02*
X36633390Y-84135714D01*
X36633390Y-84135714D02*
X36681009Y-84088095D01*
X36681009Y-84088095D02*
X36728628Y-83992857D01*
X36728628Y-83992857D02*
X36728628Y-83611905D01*
X36204819Y-85040476D02*
X36204819Y-84850000D01*
X36204819Y-84850000D02*
X36252438Y-84754762D01*
X36252438Y-84754762D02*
X36300057Y-84707143D01*
X36300057Y-84707143D02*
X36442914Y-84611905D01*
X36442914Y-84611905D02*
X36633390Y-84564286D01*
X36633390Y-84564286D02*
X37014342Y-84564286D01*
X37014342Y-84564286D02*
X37109580Y-84611905D01*
X37109580Y-84611905D02*
X37157200Y-84659524D01*
X37157200Y-84659524D02*
X37204819Y-84754762D01*
X37204819Y-84754762D02*
X37204819Y-84945238D01*
X37204819Y-84945238D02*
X37157200Y-85040476D01*
X37157200Y-85040476D02*
X37109580Y-85088095D01*
X37109580Y-85088095D02*
X37014342Y-85135714D01*
X37014342Y-85135714D02*
X36776247Y-85135714D01*
X36776247Y-85135714D02*
X36681009Y-85088095D01*
X36681009Y-85088095D02*
X36633390Y-85040476D01*
X36633390Y-85040476D02*
X36585771Y-84945238D01*
X36585771Y-84945238D02*
X36585771Y-84754762D01*
X36585771Y-84754762D02*
X36633390Y-84659524D01*
X36633390Y-84659524D02*
X36681009Y-84611905D01*
X36681009Y-84611905D02*
X36776247Y-84564286D01*
X38254819Y-48957142D02*
X37778628Y-48623809D01*
X38254819Y-48385714D02*
X37254819Y-48385714D01*
X37254819Y-48385714D02*
X37254819Y-48766666D01*
X37254819Y-48766666D02*
X37302438Y-48861904D01*
X37302438Y-48861904D02*
X37350057Y-48909523D01*
X37350057Y-48909523D02*
X37445295Y-48957142D01*
X37445295Y-48957142D02*
X37588152Y-48957142D01*
X37588152Y-48957142D02*
X37683390Y-48909523D01*
X37683390Y-48909523D02*
X37731009Y-48861904D01*
X37731009Y-48861904D02*
X37778628Y-48766666D01*
X37778628Y-48766666D02*
X37778628Y-48385714D01*
X38254819Y-49909523D02*
X38254819Y-49338095D01*
X38254819Y-49623809D02*
X37254819Y-49623809D01*
X37254819Y-49623809D02*
X37397676Y-49528571D01*
X37397676Y-49528571D02*
X37492914Y-49433333D01*
X37492914Y-49433333D02*
X37540533Y-49338095D01*
X37254819Y-50766666D02*
X37254819Y-50576190D01*
X37254819Y-50576190D02*
X37302438Y-50480952D01*
X37302438Y-50480952D02*
X37350057Y-50433333D01*
X37350057Y-50433333D02*
X37492914Y-50338095D01*
X37492914Y-50338095D02*
X37683390Y-50290476D01*
X37683390Y-50290476D02*
X38064342Y-50290476D01*
X38064342Y-50290476D02*
X38159580Y-50338095D01*
X38159580Y-50338095D02*
X38207200Y-50385714D01*
X38207200Y-50385714D02*
X38254819Y-50480952D01*
X38254819Y-50480952D02*
X38254819Y-50671428D01*
X38254819Y-50671428D02*
X38207200Y-50766666D01*
X38207200Y-50766666D02*
X38159580Y-50814285D01*
X38159580Y-50814285D02*
X38064342Y-50861904D01*
X38064342Y-50861904D02*
X37826247Y-50861904D01*
X37826247Y-50861904D02*
X37731009Y-50814285D01*
X37731009Y-50814285D02*
X37683390Y-50766666D01*
X37683390Y-50766666D02*
X37635771Y-50671428D01*
X37635771Y-50671428D02*
X37635771Y-50480952D01*
X37635771Y-50480952D02*
X37683390Y-50385714D01*
X37683390Y-50385714D02*
X37731009Y-50338095D01*
X37731009Y-50338095D02*
X37826247Y-50290476D01*
X31750057Y-60904761D02*
X31702438Y-60809523D01*
X31702438Y-60809523D02*
X31607200Y-60714285D01*
X31607200Y-60714285D02*
X31464342Y-60571428D01*
X31464342Y-60571428D02*
X31416723Y-60476190D01*
X31416723Y-60476190D02*
X31416723Y-60380952D01*
X31654819Y-60428571D02*
X31607200Y-60333333D01*
X31607200Y-60333333D02*
X31511961Y-60238095D01*
X31511961Y-60238095D02*
X31321485Y-60190476D01*
X31321485Y-60190476D02*
X30988152Y-60190476D01*
X30988152Y-60190476D02*
X30797676Y-60238095D01*
X30797676Y-60238095D02*
X30702438Y-60333333D01*
X30702438Y-60333333D02*
X30654819Y-60428571D01*
X30654819Y-60428571D02*
X30654819Y-60619047D01*
X30654819Y-60619047D02*
X30702438Y-60714285D01*
X30702438Y-60714285D02*
X30797676Y-60809523D01*
X30797676Y-60809523D02*
X30988152Y-60857142D01*
X30988152Y-60857142D02*
X31321485Y-60857142D01*
X31321485Y-60857142D02*
X31511961Y-60809523D01*
X31511961Y-60809523D02*
X31607200Y-60714285D01*
X31607200Y-60714285D02*
X31654819Y-60619047D01*
X31654819Y-60619047D02*
X31654819Y-60428571D01*
X30750057Y-61238095D02*
X30702438Y-61285714D01*
X30702438Y-61285714D02*
X30654819Y-61380952D01*
X30654819Y-61380952D02*
X30654819Y-61619047D01*
X30654819Y-61619047D02*
X30702438Y-61714285D01*
X30702438Y-61714285D02*
X30750057Y-61761904D01*
X30750057Y-61761904D02*
X30845295Y-61809523D01*
X30845295Y-61809523D02*
X30940533Y-61809523D01*
X30940533Y-61809523D02*
X31083390Y-61761904D01*
X31083390Y-61761904D02*
X31654819Y-61190476D01*
X31654819Y-61190476D02*
X31654819Y-61809523D01*
X28161904Y-81254819D02*
X28161904Y-82064342D01*
X28161904Y-82064342D02*
X28114285Y-82159580D01*
X28114285Y-82159580D02*
X28066666Y-82207200D01*
X28066666Y-82207200D02*
X27971428Y-82254819D01*
X27971428Y-82254819D02*
X27780952Y-82254819D01*
X27780952Y-82254819D02*
X27685714Y-82207200D01*
X27685714Y-82207200D02*
X27638095Y-82159580D01*
X27638095Y-82159580D02*
X27590476Y-82064342D01*
X27590476Y-82064342D02*
X27590476Y-81254819D01*
X27209523Y-81254819D02*
X26590476Y-81254819D01*
X26590476Y-81254819D02*
X26923809Y-81635771D01*
X26923809Y-81635771D02*
X26780952Y-81635771D01*
X26780952Y-81635771D02*
X26685714Y-81683390D01*
X26685714Y-81683390D02*
X26638095Y-81731009D01*
X26638095Y-81731009D02*
X26590476Y-81826247D01*
X26590476Y-81826247D02*
X26590476Y-82064342D01*
X26590476Y-82064342D02*
X26638095Y-82159580D01*
X26638095Y-82159580D02*
X26685714Y-82207200D01*
X26685714Y-82207200D02*
X26780952Y-82254819D01*
X26780952Y-82254819D02*
X27066666Y-82254819D01*
X27066666Y-82254819D02*
X27161904Y-82207200D01*
X27161904Y-82207200D02*
X27209523Y-82159580D01*
X35359580Y-49833333D02*
X35407200Y-49785714D01*
X35407200Y-49785714D02*
X35454819Y-49642857D01*
X35454819Y-49642857D02*
X35454819Y-49547619D01*
X35454819Y-49547619D02*
X35407200Y-49404762D01*
X35407200Y-49404762D02*
X35311961Y-49309524D01*
X35311961Y-49309524D02*
X35216723Y-49261905D01*
X35216723Y-49261905D02*
X35026247Y-49214286D01*
X35026247Y-49214286D02*
X34883390Y-49214286D01*
X34883390Y-49214286D02*
X34692914Y-49261905D01*
X34692914Y-49261905D02*
X34597676Y-49309524D01*
X34597676Y-49309524D02*
X34502438Y-49404762D01*
X34502438Y-49404762D02*
X34454819Y-49547619D01*
X34454819Y-49547619D02*
X34454819Y-49642857D01*
X34454819Y-49642857D02*
X34502438Y-49785714D01*
X34502438Y-49785714D02*
X34550057Y-49833333D01*
X34454819Y-50166667D02*
X34454819Y-50833333D01*
X34454819Y-50833333D02*
X35454819Y-50404762D01*
X27366666Y-64454819D02*
X27842856Y-64454819D01*
X27842856Y-64454819D02*
X27842856Y-63454819D01*
X26509523Y-64454819D02*
X27080951Y-64454819D01*
X26795237Y-64454819D02*
X26795237Y-63454819D01*
X26795237Y-63454819D02*
X26890475Y-63597676D01*
X26890475Y-63597676D02*
X26985713Y-63692914D01*
X26985713Y-63692914D02*
X27080951Y-63740533D01*
%TO.C,C5*%
D12*
X32090000Y-79488748D02*
X32090000Y-80911252D01*
X33910000Y-79488748D02*
X33910000Y-80911252D01*
%TO.C,R17*%
X30665000Y-53427064D02*
X30665000Y-52972936D01*
X32135000Y-53427064D02*
X32135000Y-52972936D01*
%TO.C,R5*%
X37665000Y-79322936D02*
X37665000Y-79777064D01*
X39135000Y-79322936D02*
X39135000Y-79777064D01*
%TO.C,R15*%
X37065000Y-60627064D02*
X37065000Y-60172936D01*
X38535000Y-60627064D02*
X38535000Y-60172936D01*
%TO.C,C4*%
X22890000Y-79088748D02*
X22890000Y-80511252D01*
X24710000Y-79088748D02*
X24710000Y-80511252D01*
%TO.C,D1*%
X42310000Y-73950000D02*
X36800000Y-73950000D01*
X42310000Y-73950000D02*
X42310000Y-77250000D01*
X42310000Y-77250000D02*
X36800000Y-77250000D01*
%TO.C,R6*%
X37665000Y-84122936D02*
X37665000Y-84577064D01*
X39135000Y-84122936D02*
X39135000Y-84577064D01*
%TO.C,R16*%
X37065000Y-53227064D02*
X37065000Y-52772936D01*
X38535000Y-53227064D02*
X38535000Y-52772936D01*
%TO.C,Q2*%
X32040000Y-60240000D02*
X32040000Y-61760000D01*
X32040000Y-61760000D02*
X33040000Y-61760000D01*
X32090000Y-60240000D02*
X32040000Y-60240000D01*
X33990000Y-60240000D02*
X33210000Y-60240000D01*
X34160000Y-61760000D02*
X35160000Y-61760000D01*
X35160000Y-60240000D02*
X35110000Y-60240000D01*
X35160000Y-61760000D02*
X35160000Y-60240000D01*
X33550000Y-59940000D02*
X33220000Y-59700000D01*
X33550000Y-59460000D01*
X33550000Y-59940000D01*
G36*
X33550000Y-59940000D02*
G01*
X33220000Y-59700000D01*
X33550000Y-59460000D01*
X33550000Y-59940000D01*
G37*
%TO.C,U3*%
X26490000Y-77640000D02*
X26490000Y-77690000D01*
X26490000Y-80710000D02*
X26490000Y-80760000D01*
X26490000Y-80760000D02*
X28310000Y-80760000D01*
X28310000Y-77640000D02*
X26490000Y-77640000D01*
X28310000Y-77690000D02*
X28310000Y-77640000D01*
X28310000Y-80760000D02*
X28310000Y-80710000D01*
X28850000Y-77690000D02*
X28610000Y-77360000D01*
X29090000Y-77360000D01*
X28850000Y-77690000D01*
G36*
X28850000Y-77690000D02*
G01*
X28610000Y-77360000D01*
X29090000Y-77360000D01*
X28850000Y-77690000D01*
G37*
%TO.C,C7*%
X34265000Y-53261252D02*
X34265000Y-52738748D01*
X35735000Y-53261252D02*
X35735000Y-52738748D01*
%TO.C,L1*%
X22000000Y-66600000D02*
X22000000Y-68000000D01*
X22000000Y-72800000D02*
X22000000Y-75600000D01*
X22000000Y-75600000D02*
X32400000Y-75600000D01*
X23400000Y-65200000D02*
X22000000Y-66600000D01*
X32400000Y-65200000D02*
X23400000Y-65200000D01*
X32400000Y-68000000D02*
X32400000Y-65200000D01*
X32400000Y-75600000D02*
X32400000Y-72800000D01*
%TD*%
M02*
