M48
; DRILL file KiCad 10.0.0 date 2026-07-02T17:33:15
; FORMAT={-:-/ absolute / metric / decimal}
; #@! TF.CreationDate,2026-07-02T17:33:15-03:00
; #@! TF.GenerationSoftware,Kicad,Pcbnew,10.0.0
; #@! TF.FileFunction,Plated,1,2,PTH
FMAT,2
METRIC
; #@! TA.AperFunction,Plated,PTH,ViaDrill
T1C0.300
; #@! TA.AperFunction,Plated,PTH,ComponentDrill
T2C0.300
; #@! TA.AperFunction,Plated,PTH,ComponentDrill
T3C0.600
; #@! TA.AperFunction,Plated,PTH,ComponentDrill
T4C1.000
; #@! TA.AperFunction,Plated,PTH,ComponentDrill
T5C1.190
; #@! TA.AperFunction,Plated,PTH,ComponentDrill
T6C2.000
; #@! TA.AperFunction,Plated,PTH,ComponentDrill
T7C2.200
%
G90
G05
T1
X14.6Y-65.0
X15.0Y-41.8
X18.6Y-73.0
X19.0Y-76.2
X20.0Y-73.0
X20.0Y-76.4
X25.6Y-52.6
X27.0Y-33.0
X27.0Y-71.6
X30.2Y-58.4
X30.2Y-60.4
X30.4Y-87.8
X33.4Y-74.6
X34.4Y-56.8
X36.4Y-33.0
X45.8Y-34.2
X45.8Y-36.4
X45.8Y-63.6
X45.8Y-66.6
X51.0Y-90.4
X55.4Y-69.2
X56.4Y-75.6
X59.4Y-83.8
X61.2Y-69.2
X62.2Y-77.305
X62.2Y-86.2
X63.2Y-76.2
X63.2Y-86.2
X63.8Y-49.6
X63.95Y-85.0
X64.75Y-75.105
X64.75Y-76.25
X64.8Y-78.4
X65.0Y-32.4
X65.8Y-87.2
X74.2Y-85.6
X75.8Y-68.4
X76.2Y-85.6
X82.6Y-51.2
X82.8Y-40.4
X82.8Y-63.4
T2
X18.75Y-80.0
X18.75Y-81.4
X19.95Y-80.0
X19.95Y-81.4
X21.15Y-80.0
X21.15Y-81.4
T4
X15.5Y-72.485
X15.5Y-75.025
X21.482Y-33.9
X21.482Y-36.44
X21.482Y-38.98
X21.482Y-41.52
X21.482Y-44.06
X21.482Y-46.6
X21.482Y-49.14
X21.482Y-51.68
X21.482Y-54.22
X21.482Y-56.76
X21.482Y-59.3
X21.482Y-61.84
X41.802Y-33.9
X41.802Y-36.44
X41.802Y-38.98
X41.802Y-41.52
X41.802Y-44.06
X41.802Y-46.6
X41.802Y-49.14
X41.802Y-51.68
X41.802Y-54.22
X41.802Y-56.76
X41.802Y-59.3
X41.802Y-61.84
X41.802Y-64.38
X41.802Y-66.92
X41.802Y-69.46
X41.802Y-72.0
X46.46Y-75.75
X47.95Y-43.13
X47.95Y-45.67
X47.95Y-48.21
X47.95Y-50.75
X47.95Y-53.29
X47.95Y-55.83
X47.95Y-58.37
X49.0Y-75.75
T5
X41.985Y-87.52
X44.525Y-87.52
T6
X79.75Y-35.25
T7
X17.0Y-36.0
X17.0Y-88.75
X80.5Y-88.5
T3
G00X26.18Y-85.7
M15
G01X26.18Y-86.3
M16
G05
G00X26.18Y-89.5
M15
G01X26.18Y-90.1
M16
G05
G00X34.82Y-85.7
M15
G01X34.82Y-86.3
M16
G05
G00X34.82Y-89.5
M15
G01X34.82Y-90.1
M16
G05
M30
